<?xml version="1.0" standalone="no"?>
<!DOCTYPE svg PUBLIC "-//W3C//DTD SVG 1.1//EN" "http://www.w3.org/Graphics/SVG/1.1/DTD/svg11.dtd" >
<!--
2013-9-30: Created.
-->
<svg>
<metadata>
Created by iconfont
</metadata>
<defs>

<font id="iconfont" horiz-adv-x="1024" >
  <font-face
    font-family="iconfont"
    font-weight="500"
    font-stretch="normal"
    units-per-em="1024"
    ascent="896"
    descent="-128"
  />
    <missing-glyph />
    
    <glyph glyph-name="x" unicode="x" horiz-adv-x="1001"
d="M281 543q-27 -1 -53 -1h-83q-18 0 -36.5 -6t-32.5 -18.5t-23 -32t-9 -45.5v-76h912v41q0 16 -0.5 30t-0.5 18q0 13 -5 29t-17 29.5t-31.5 22.5t-49.5 9h-133v-97h-438v97zM955 310v-52q0 -23 0.5 -52t0.5 -58t-10.5 -47.5t-26 -30t-33 -16t-31.5 -4.5q-14 -1 -29.5 -0.5
t-29.5 0.5h-32l-45 128h-439l-44 -128h-29h-34q-20 0 -45 1q-25 0 -41 9.5t-25.5 23t-13.5 29.5t-4 30v167h911zM163 247q-12 0 -21 -8.5t-9 -21.5t9 -21.5t21 -8.5q13 0 22 8.5t9 21.5t-9 21.5t-22 8.5zM316 123q-8 -26 -14 -48q-5 -19 -10.5 -37t-7.5 -25t-3 -15t1 -14.5
t9.5 -10.5t21.5 -4h37h67h81h80h64h36q23 0 34 12t2 38q-5 13 -9.5 30.5t-9.5 34.5q-5 19 -11 39h-368zM336 498v228q0 11 2.5 23t10 21.5t20.5 15.5t34 6h188q31 0 51.5 -14.5t20.5 -52.5v-227h-327z" />
    

    
    <glyph glyph-name="currentlocation" unicode="&#59173;" d="M882.8928 420.4288l-108.8512 124.9408a31.5776 31.5776 0 0 1-45.6064 0 35.2384 35.2384 0 0 1 0-47.3344l111.4752-120.8448h-32.6272c-36.0064 0-65.1648-30.4896-65.1648-68.096V41.472h-97.7408V275.6992c0 37.6064-29.1584 68.0832-65.1136 68.0832H448.9088c-35.968 0-65.1648-30.4896-65.1648-68.0832V41.472h-97.7408V309.0688c0 37.6064-29.1584 68.096-65.152 68.096h-32.576l325.7856 349.6576 116.9536-128.3584a31.616 31.616 0 0 1 45.632 0 35.136 35.136 0 0 1 0 47.3344l-114.368 123.9168A64.064 64.064 0 0 1 513.088 793.6a62.0288 62.0288 0 0 1-47.8592-22.1312l-59.3024-64.7168c-9.5104 22.3616-30.4 37.1584-53.7728 38.1312h-65.1648c-40.8064-4.9792-69.952-43.5584-65.152-86.1312v-149.7856l-81.4208-88.5376c-16.3584-19.8272-19.9168-47.872-9.152-71.5264 10.752-23.5136 33.3824-38.5792 58.3168-38.7968h32.6272V42.496c0-37.6064 29.1584-68.0832 65.152-68.0832h450.24c36.0064 0 65.1648 30.4896 65.1648 68.0832V310.1056h32.576c24.9344 0.2304 47.616 15.2832 58.3168 38.7968 9.8048 24.0512 5.632 51.8272-10.7648 71.5264zM287.616 658.7392a38.6432 38.6432 0 0 0 4.2624 19.072h55.7312c3.0208-5.824 4.4544-12.4416 4.1856-19.072h0.9856v-10.5344l-65.1648-70.1312v80.6656zM577.28 42.1376H446.9504V276.416H577.28v-234.2784z"  horiz-adv-x="1024" />

    
    <glyph glyph-name="Downarrow" unicode="&#59174;" d="M890.0864 611.5584L512 221.4912 133.9136 611.5584 102.4 579.072l409.6-422.6176L921.6 579.072z"  horiz-adv-x="1024" />

    
    <glyph glyph-name="dropout" unicode="&#59175;" d="M725.5168 262.6176a27.4048 27.4048 0 0 1 38.9504 0l31.232 31.6672h2.368v2.368l65.3056 66.2784c1.6512 0.9984 3.3792 1.728 4.8 3.1104a25.728 25.728 0 0 1 6.272 10.3552c5.568 10.4448 4.3008 23.5392-4.4672 32.384-3.9168 3.9168-8.7552 5.888-13.7216 6.9504l-58.1888 57.1776v0.8192h-0.832l-33.1392 32.5888a27.648 27.648 0 0 1-38.6176 0c-9.1008-8.8704-9.9712-22.272-3.6224-32.5888h-4.2496v-54.3488H447.488v-70.6944h270.1056v-54.4h2.9824c-5.0816-10.368-3.648-23.0912 4.9408-31.6672zM921.6 642.7008c0 82.9312-44.544 129.3312-129.344 129.3312h-560.512C146.9056 772.032 102.4 725.632 102.4 642.7008V125.312c0-82.944 49.6768-129.344 129.344-129.344h560.4992C877.056-4.032 921.6 42.368 921.6 125.312v86.2208h-86.2336v-86.2208c0-27.6608-14.8096-43.1104-43.1104-43.1104h-560.512c-28.3008 0-43.1232 15.4496-43.1232 43.1104V642.7008c0 27.6608 14.8224 43.1104 43.1232 43.1104h560.4992c28.3008 0 43.1104-15.4496 43.1104-43.1104v-86.2336H921.6v86.2336z"  horiz-adv-x="1024" />

    
    <glyph glyph-name="download" unicode="&#59176;" d="M494.8864 209.2928c8.8576-8.8576 14.656-7.9616 16.8448-7.0912a8.9856 8.9856 0 0 0-1.0624 0.512h2.0864s-0.3712-0.2688-1.024-0.512c2.4064-0.96 8.8704-2.2016 17.6 7.0912 84.9792 90.3168 139.2896 154.8928 202.5728 220.4928 25.7792 26.7648-21.8624 25.4208-27.1616 25.4208l-117.8112 0.0384V721.4592c0 16.1408-11.968 26.8032-27.5072 26.8032h-93.6448c-14.1312 0-28.8896-13.0688-28.8896-25.2416v-267.7888l-119.2832-0.0384c-5.248 0-51.2896 1.3696-25.5616-25.4208 66.9312-69.6832 131.776-149.504 202.8416-220.48z m399.5136 31.0144h-18.2272c-14.0032 0-28.6208-13.1456-28.6208-25.3696v-122.4448H177.1136v120.9344c0 16.1792-11.8656 26.8928-27.2384 26.8928h-18.2272c-14.0032 0-28.5696-13.1456-28.5696-25.3696v-141.5168c-0.4096-1.7664-0.6784-3.584-0.6784-5.4656v-23.7312c0-13.5168 11.1616-24.4864 24.9344-24.4864h766.8992c10.3552 0 18.4832 4.5952 23.1168 11.7504 2.6752 3.904 4.2496 8.6144 4.2496 13.696V213.4272c0 16.1664-11.8272 26.88-27.2 26.88z"  horiz-adv-x="1024" />

    
    <glyph glyph-name="home" unicode="&#59177;" d="M915.3792 378.3936v0.0384L512.0128 752.6656 108.6208 379.52a19.2768 19.2768 0 0 1-0.96-27.4176 19.6864 19.6864 0 0 1 27.648-0.9088l376.6656 348.3776 376.6784-349.4656a19.6096 19.6096 0 0 1 27.648 0.9216 19.1744 19.1744 0 0 1-0.9216 27.3664z m-123.1104-7.68c-10.752 0-19.5456-8.6784-19.5456-19.3536v-297.2544H616.2688V260.864H407.68v-206.7456H251.264V351.36c0 10.6752-8.768 19.3536-19.5584 19.3536a19.456 19.456 0 0 1-19.5584-19.3536v-336.0256h234.6624V222.1056h130.368v-206.7584h234.688V351.36a19.5072 19.5072 0 0 1-19.5968 19.3536zM655.3984 648.576h117.3248v-103.36c0-10.7136 8.8064-19.4048 19.5456-19.4048 10.8032 0 19.5712 8.6912 19.5712 19.4048V687.3728H655.3984c-10.8032 0-19.5712-8.6784-19.5712-19.4048s8.768-19.392 19.5712-19.392z"  horiz-adv-x="1024" />

    
    <glyph glyph-name="product" unicode="&#59178;" d="M523.84 175.0912c-34.4192 0-62.3232-29.0688-62.3232-64.8704s27.904-64.832 62.3232-64.832c34.432 0 62.3616 29.0304 62.3616 64.832s-27.9296 64.8704-62.3616 64.8704z m0-104.8064c-21.1968 0-38.3616 17.8816-38.3616 39.9232 0 22.08 17.1648 39.9616 38.3616 39.9616s38.4-17.8816 38.4-39.9616c0-22.0288-17.2032-39.9232-38.4-39.9232zM703.7312 793.6H324.8256c-38.0288 0-73.4464-28.3648-73.4464-73.1648v-658.2656c0-52.8 43.0464-87.7696 81.088-87.7696h363.6224c3.392 0 6.7584 0.3584 10.1888 1.0112 34.4192 6.912 66.3552 47.2064 66.3552 88V712.4736C772.6208 757.2736 741.76 793.6 703.7312 793.6z m40-716.8c0-40.1152-26.112-71.7824-57.9584-73.1264H352.7552c-34.2144 0-72.4224 31.2576-72.4224 73.1264V705.792c0 41.8816 23.7312 58.5472 57.9584 58.5472h361.984c34.2144 0 43.456-31.3088 43.456-73.1648V76.8zM428.1728 676.544h170.7136V705.792H425.1264l3.0464-29.248z"  horiz-adv-x="1024" />

    
    <glyph glyph-name="Enterprisemanagemen" unicode="&#59179;" d="M184.32 15.36c12.0832 171.5712 158.1952 327.68 327.68 327.68 39.7568 0 77.9136-20.3648 113.088-33.9968l36.0192 37.1072c-1.8304 0.8832-3.7504 1.728-5.6064 2.5728a357.248 357.248 0 0 1-31.68 12.032 226.9824 226.9824 0 0 1 47.1296 37.2736c42.4704 43.7504 65.8432 101.9648 65.8432 163.84 0 61.9136-23.36 120.0768-65.8432 163.84C628.4928 769.5232 572.032 793.6 512 793.6c-60.0448 0-116.48-24.0768-158.9632-67.8784-42.4832-43.7632-65.8304-101.9136-65.8304-163.84 0-61.8752 23.3472-120.0896 65.8304-163.84a226.6496 226.6496 0 0 1 47.1296-37.2736c-10.688-3.4688-21.2352-7.5264-31.68-12.032a367.6928 367.6928 0 0 1-117.12-81.4336 378.9312 378.9312 0 0 1-79.04-120.7808 388.2624 388.2624 0 0 1-28.9536-147.9168c0-13.3504 10.5216-24.2048 23.4752-24.2048H310.656L307.2 15.36h-122.88z m149.8368 546.5216c0 101.0816 79.7568 183.3216 177.8432 183.3216s177.8432-82.24 177.8432-183.3216S610.0736 378.56 512 378.56 334.1568 460.8 334.1568 561.8816z m517.5296-415.3728a380.2368 380.2368 0 0 1-69.1968 110.1952s-33.3312-34.3552-24.9216-26.752C807.04 178.3168 834.6368 92.3264 839.68 15.36H716.8l-3.4816-40.96h143.8464c12.9664 0 23.4752 10.8544 23.4752 24.2048a388.48 388.48 0 0 1-28.9536 147.904zM751.232 336.3968c-8.4352 9.1904-22.0416 9.1904-30.4384 0L515.2896 112.4864l-90.0992 98.1504c-8.4352 9.2032-22.0672 9.2032-30.4768 0-8.4096-9.1648-8.4096-24 0-33.1648l105.3312-114.8032c4.1984-4.544 9.7152-6.8864 15.2448-6.8864 5.5168 0 11.0336 2.3424 15.2064 6.8864L751.232 303.232c8.4096 9.1648 8.4096 24 0 33.1648z"  horiz-adv-x="1024" />

    
    <glyph glyph-name="new" unicode="&#59180;" d="M875.3664 668.352H123.0336C104.5632 668.352 89.6 648.5248 89.6 624.0768v-398.5536c0-24.448 14.976-44.2752 33.4336-44.2752h132.6208l-33.216-132.8512L448.2816 181.248h427.072c18.4576 0 33.4208 19.8272 33.4208 44.2752V624.0768c0.0128 24.448-14.9504 44.2752-33.408 44.2752zM369.984 473.6h41.7792a382.3616 382.3616 0 0 1-20.7616 30.1056l14.016 9.856c5.7088-6.9248 13.056-16.6912 22.0544-29.3248L412.4032 473.6h34.24a727.04 727.04 0 0 1 26.0864 40.2304l18.4192-10.3808A1008.6016 1008.6016 0 0 0 467.1488 473.6h39.3088v-16.6016H369.984V473.6z m27.2384-76.7872l17.6384-8.3072a737.3184 737.3184 0 0 0-27.7632-52.928 191.4112 191.4112 0 0 1-17.1264 9.3312c8.4864 13.1584 17.5616 30.4512 27.2512 51.904z m-19.968 28.2752h52.928v24.6528h18.6752v-24.6528h50.8544v-16.6016h-50.8544v-67.7248c0-18.3424-8.8192-27.4944-26.4576-27.4944-7.4368 0-15.8208 0.0896-25.1648 0.2688a487.744 487.744 0 0 1-2.8544 19.712c10.0352-1.0368 17.9072-1.5488 23.616-1.5488 8.128 0 12.1984 4.4032 12.1984 13.2224v63.5776h-52.928V425.088z m1.0368 108.7104h56.0384a719.872 719.872 0 0 1-12.7232 23.0912l16.6016 7.7824a454.528 454.528 0 0 0 15.0528-26.7264l-8.6912-4.1472h55.1424v-16.6016h-121.4208v16.6016z m93.6576-138.2912a820.736 820.736 0 0 0 25.4208-36.3264l-16.6016-11.4048a422.5024 422.5024 0 0 1-24.128 37.6064l15.3088 10.1248z m43.5968 146.0864c35.7888 0.3456 68.8128 3.8912 99.0976 10.6368l6.7456-19.9808c-34.2528-4.5056-63.3728-7.4368-87.424-8.8192v-60.4544h94.6944v-17.6512h-37.0944V309.376h-19.2V445.3248h-38.4v-12.7104c0-53.0944-12.7232-94.4384-38.144-124.0192a351.744 351.744 0 0 1-13.7472 16.6144c22.3104 24.384 33.472 60.4544 33.472 108.1856v108.1984z"  horiz-adv-x="1024" />

    
    <glyph glyph-name="Rightarrow" unicode="&#59181;" d="M316.9792 793.6l-32.5248-31.5136L674.5088 384 284.4544 5.9136 316.9792-25.6l422.5664 409.6z"  horiz-adv-x="1024" />

    
    <glyph glyph-name="QRcode" unicode="&#59182;" d="M606.6048 354.4448h-63.0528v-236.352h63.0528V354.4448zM228.352 118.2464h125.952v118.1056h-125.952v-118.1056zM102.4 0h378.048V354.4448H102.4V0z m63.104 295.296h252.096v-236.352H165.504V295.296zM543.552 0h125.952v59.1488h-125.952V0z m251.904 649.8944h-125.952v-118.0544h125.952v118.0544zM732.544 295.296H921.6v59.1488H732.544v-59.1488z m125.952-118.0928H921.6v59.1488h-63.104v-59.1488zM669.504 236.544v-118.2976h125.952v59.1488h-63.104V236.544h-62.848zM543.552 768v-354.4448H921.6V768H543.552z m315.1488-295.296H606.6048V708.8512h252.096V472.704zM102.4 413.5552h378.048V768H102.4v-354.4448z m63.104 295.296h252.096v-236.352H165.504V708.8512z m692.992-649.7024h-125.952V0H921.6v118.1056h-63.104v-58.9568z m-630.144 472.704h125.952v118.0544h-125.952v-118.0544z"  horiz-adv-x="1024" />

    
    <glyph glyph-name="pingguo" unicode="&#59183;" d="M555.8912 604.0192c16.0256 5.5168 33.7024 17.3056 53.056 35.4688 20.416 20.3008 35.6224 42.5472 45.5424 66.7136 9.3824 24.7552 14.1056 46.9888 14.1056 66.7648v9.0624A214.8992 214.8992 0 0 0 666.112 793.6c-56.9088-13.184-97.8048-37.4016-122.5984-72.5504-24.8576-35.1488-37.568-76.8896-38.1568-125.2224 11.0464 1.0752 20.8512 2.304 29.4272 3.6992a169.5744 169.5744 0 0 1 21.1072 4.4928zM775.424 254.6048c-22.6176 32.4096-33.9712 68.6848-33.9712 108.8256 0 36.224 10.7776 69.76 32.3072 100.5312 11.6224 16.448 30.1184 35.6864 55.5136 57.6512-17.1008 21.4272-33.9712 37.6704-50.5216 48.6528-30.9248 20.8384-65.7024 31.2832-104.384 31.2832a99.712 99.712 0 0 1-35.6352-6.592c-11.5712-4.3904-25.3952-10.9824-41.408-19.776-14.8992-8.7936-29.7984-14.848-44.6976-18.112-14.9504-3.3152-25.984-4.9792-33.1648-4.9792-6.0672 0-14.6304 1.8304-25.6768 5.3504-11.0336 3.5968-25.1264 10.0736-42.2784 19.4048-16.0128 8.256-31.4496 13.8752-46.3488 16.8832-14.9504 2.9952-28.4544 4.5568-40.6144 4.5568-55.2448 0-101.6064-23.6288-139.1616-70.8992-36.4928-47.2576-54.7072-107.9808-54.7072-182.144 0-80.2048 24.064-161.7664 72.0768-244.7616C290.8032 16.4608 339.6736-25.6 389.4016-25.6c17.088 0 38.8992 5.248 65.4208 15.7056 25.3952 10.9824 48.6016 16.448 69.6064 16.448 21.0048 0 45.5424-5.1968 73.728-15.6544 30.3872-10.4448 53.2608-15.6416 68.7488-15.6416 41.4208 0 83.3792 31.8208 125.9264 95.5904 27.5968 42.2784 47.7312 82.944 60.5056 121.9584-29.312 9.3184-55.2448 29.952-77.9136 61.7984z"  horiz-adv-x="1024" />

    
    <glyph glyph-name="anzhuo" unicode="&#59184;" d="M227.84 533.2736c-26.9952 4.5312-51.8912 2.2144-66.944-25.536v-250.6112c16.5248-25.7536 40.064-34.496 69.376-25.8048 17.8176 5.2352 28.9408 18.8544 29.056 37.3504 0.1664 75.3792 0.1664 150.7968 0 226.1632-0.0128 19.712-12.5952 35.3664-31.488 38.4384z m576.2048 1.2928c-24.8448-2.2656-39.296-17.5488-39.3728-42.9696-0.1024-72.6656-0.1024-145.3952 0-218.1504 0-26.2912 14.144-41.8432 39.9488-44.3264 24.896-2.432 46.1312 3.4048 58.4704 28.0064V507.7376c-12.8896 24.192-34.1632 29.1584-59.0464 26.8288z m-512.1792 18.0352c-0.2688-3.1872-0.704-5.3376-0.704-7.3344 0-123.6864-0.2176-247.2576 0.0512-370.8928 0-25.2288 15.6672-40.7168 40.8064-41.408 13.5552-0.384 26.9952-0.1152 41.6768-0.1152 0-36.4416 1.088-70.6688-0.3712-104.7936-1.024-23.5904 5.0688-41.7408 25.8688-53.6576h47.68c20.672 11.9296 26.8288 29.9648 25.856 53.4528-1.5616 34.0608-0.3712 68.1728-0.3712 103.6032h85.8368c0-37.1456-0.256-74.4448 0.1792-111.5904 0.1024-8.2688 0.6528-17.8688 4.6464-24.576 4.7744-8.2048 13.5296-13.9776 20.6592-20.8896h47.68c20.672 11.9296 27.8528 30.08 25.6256 53.6576-1.2288 14.3104-0.2688 28.8896-0.2688 43.3024v61.4912h30.6304c34.8288 0.1152 48.32 13.3376 48.32 48.1024V535.7568c-0.2304 5.7216-0.6528 11.3408-0.9216 16.8448h-442.88z m330.1888 169.8944c11.8272 18.6752 23.3216 35.9552 33.7536 53.824 2.8416 4.864 2.7392 11.5072 3.9168 17.28h-9.5488c-13.12-21.696-26.2272-43.3536-39.5776-65.4848-64.8192 27.6992-128.32 28.3392-193.6896 0.9728-13.3376 21.5424-26.7264 43.0848-40.0128 64.512h-9.5488c1.5104-5.888 1.9968-12.5312 4.9152-17.5488 10.2016-17.4336 21.2736-34.3424 32.6656-52.48-56.0384-32.2816-95.6672-77.5808-114.8416-141.4528H734.72c-18.6752 62.7968-57.1648 107.8784-112.6656 140.3776z m-205.0432-96.7936c-13.1712-0.3712-23.5392 9.0624-24.2816 22.1312-0.768 13.824 9.2928 25.152 22.8352 25.536 13.2224 0.32 24.6656-10.7904 24.6656-24.0256a23.808 23.808 0 0 0-23.2192-23.6416z m188.0448 3.1232a23.7824 23.7824 0 0 0-23.7056 23.168c-0.2688 13.2864 10.944 24.6656 24.2304 24.4608 13.0304-0.0512 23.0016-10.2016 23.2192-23.4368 0.2688-13.9776-9.8304-24.2944-23.744-24.192z"  horiz-adv-x="1024" />

    
    <glyph glyph-name="Toview" unicode="&#59185;" d="M512 657.024C285.7856 657.024 102.4 474.2272 102.4 384c0-83.4944 183.3856-273.024 409.6-273.024S921.6 297.1136 921.6 384 738.2144 657.024 512 657.024z m0-496.3968c-207.68 0-361.3952 176.6912-361.3952 223.3728 0 52.352 154.0096 223.3856 361.3952 223.3856S873.3952 436.352 873.3952 384 719.3856 160.6272 512 160.6272z m0 409.5488c-92.9792 0-168.6528-77.952-168.6528-173.7728 0-95.7696 75.6736-173.7344 168.6528-173.7344s168.6656 77.9648 168.6656 173.7344c0 95.8208-75.6864 173.7728-168.6656 173.7728z m0-297.8688c-66.4448 0-120.448 55.6544-120.448 124.0832s54.0032 124.1344 120.448 124.1344c66.4064 0 120.448-55.6928 120.448-124.1344s-54.0416-124.0832-120.448-124.0832z m0 223.3856c-53.1584 0-96.3712-44.5312-96.3712-99.2896 0-13.6704 10.752-24.8064 24.0768-24.8064s24.0768 11.1232 24.0768 24.8064c0 27.3792 21.6192 49.6384 48.2048 49.6384 13.3248 0 24.0768 11.136 24.0768 24.8448 0.0128 13.6704-10.7392 24.8064-24.064 24.8064z"  horiz-adv-x="1024" />

    
    <glyph glyph-name="system" unicode="&#59186;" d="M919.8976 418.9056c-2.3808 24.6912-21.0304 45.9264-46.4256 52.8384a143.0272 143.0272 0 0 0-65.3056 38.2464c-23.5392 24.2176-36.48 55.5264-36.48 88.1792 0 10.9184 1.4464 21.7472 4.2624 32.1792a60.1216 60.1216 0 0 1-24.4608 65.4208 410.4704 410.4704 0 0 1-68.3392 37.4528c-22.9888 9.8944-50.9824 4.6592-69.5168-13.1584-53.0816-50.7648-150.3744-50.688-203.2256 0-18.5984 17.856-46.528 23.0912-69.568 13.1584a410.2016 410.2016 0 0 1-66.56-36.2624 59.8912 59.8912 0 0 1-24.64-65.8176c2.9824-10.6112 4.4672-21.7472 4.4672-32.9856 0-32.9088-13.1456-64.3968-36.9664-88.7296a143.6928 143.6928 0 0 0-66.0864-38.08c-25.7536-6.7584-44.6592-28.032-47.0528-53.056a368.768 368.768 0 0 1 0.0128-68.5952c2.4064-24.9856 21.312-46.2976 47.04-53.0304a143.6416 143.6416 0 0 0 66.112-38.1184c23.8208-24.32 36.9664-55.808 36.9664-88.7296 0-11.1616-1.4848-22.2848-4.4544-32.9344a59.9424 59.9424 0 0 1 24.6144-65.8688 414.4128 414.4128 0 0 1 66.5472-36.2112c23.0528-10.0352 50.9568-4.6848 69.568 13.1584 26.4704 25.344 63.5264 39.8848 101.6064 39.8848 38.6688 0 74.752-14.1696 101.6448-39.9232a65.6384 65.6384 0 0 1 45.1712-18.112c8.2944 0 16.6016 1.6 24.3328 4.992a412.3904 412.3904 0 0 1 68.3904 37.4528 60.0832 60.0832 0 0 1 24.4096 65.344 124.6976 124.6976 0 0 0-4.2624 32.2176c0 32.704 12.9408 64 36.48 88.2304a143.168 143.168 0 0 0 65.3056 38.2464c25.3952 6.912 44.0448 28.1472 46.4256 52.8a361.1264 361.1264 0 0 1-0.0128 69.8112z m-42.9312-65.8304c-0.7168-7.4496-6.784-14.0032-15.1168-16.256a186.112 186.112 0 0 1-85.0048-49.8688c-31.1296-32.0256-48.256-73.6256-48.256-117.12a165.12 165.12 0 0 1 5.6704-42.9312 18.5472 18.5472 0 0 0-7.3216-20.0704 369.3568 369.3568 0 0 0-61.248-33.5232c-6.9248-2.944-15.744-1.1392-21.8624 4.6848-34.9824 33.5232-81.8048 52.0064-131.84 52.0064-49.9968 0-96.8064-18.4704-131.8016-51.968-6.08-5.8624-14.8608-7.744-21.9008-4.7232a369.1392 369.1392 0 0 0-59.584 32.4352 18.5088 18.5088 0 0 0-7.3984 20.1728 165.376 165.376 0 0 1 5.9264 43.9296c0 43.8272-17.3568 85.6704-48.9344 117.8624-23.2704 23.7312-53.0176 40.896-86.0288 49.6-8.4608 2.2144-14.6048 8.768-15.3088 16.256-0.9472 10.112-1.4592 20.3264-1.4592 30.4768s0.512 20.3264 1.4592 30.4384c0.7168 7.5264 6.8608 14.0416 15.3088 16.256a187.264 187.264 0 0 1 86.0288 49.6256c31.5648 32.192 48.9344 73.9968 48.9344 117.824 0 14.976-2.0224 29.7856-5.9776 44.0064a18.624 18.624 0 0 0 7.4496 20.1472 366.976 366.976 0 0 0 59.584 32.3968c7.0272 3.0464 15.8464 1.1264 21.9008-4.6592 34.9568-33.5232 81.8048-52.0064 131.84-52.0064 49.9328 0 96.768 18.432 131.8016 52.0064 6.1952 5.8624 14.9888 7.6032 21.9136 4.6592a369.8176 369.8176 0 0 0 61.1456-33.4976c6.4-4.3264 9.4464-12.5824 7.3728-20.1088a164.928 164.928 0 0 1-5.6704-42.944c0-43.456 17.1264-85.056 48.256-117.12a186.4704 186.4704 0 0 1 85.0048-49.8176c8.32-2.2912 14.4-8.832 15.1168-16.2816a315.1616 315.1616 0 0 0 0-61.888zM508.48 522.6112c-77.8368 0-141.1328-59.6352-141.1328-132.9408 0-73.344 63.296-132.992 141.1328-132.992 77.824 0 141.0816 59.6352 141.0816 132.992 0 73.2928-63.2576 132.9408-141.0816 132.9408z m0-223.8208c-54.0416 0-98.0224 40.768-98.0224 90.88 0 50.112 43.9808 90.8416 98.0224 90.8416 54.0288 0 97.9712-40.7296 97.9712-90.8416 0-50.1248-43.9552-90.88-97.9712-90.88z"  horiz-adv-x="1024" />

    
    <glyph glyph-name="Addcontrast" unicode="&#58960;" d="M453.4912 442.5088V-25.6h-117.0304V442.5088H102.4L453.4912 793.6v-351.0912z m117.0176-117.0176V793.6h117.0304v-468.1088H921.6L570.5088-25.6V325.4912z"  horiz-adv-x="1024" />

    
    <glyph glyph-name="delete" unicode="&#58961;" d="M589.8368 100.4032c18.0352 0 32.896 14.4768 33.28 31.6288l9.7152 388.6464c0.448 17.3952-14.144 32.064-32.5632 32.448-18.6752 0.2816-33.664-13.248-34.0992-30.6432l-9.7152-389.056a32.768 32.768 0 0 1 32.4992-33.024h0.8832z m-157.0688 0h0.7552c18.4192 0 33.024 16.704 32.512 34.0992l-9.6512 389.2224c-0.4352 17.3952-15.488 31.616-34.1504 31.232-18.3552-0.4096-32.9472-14.6048-32.512-32.0256l9.7152-390.0032a33.9584 33.9584 0 0 1 33.3312-32.5248z m-16.0128 585.1008H607.232v45.056H416.7552v-45.056zM921.6 649.5616c0-19.904-17.0752-36.0064-38.1568-36.0064H140.5568C119.424 613.5296 102.4 629.6192 102.4 649.536c0 19.84 17.0496 35.968 38.1568 35.968H350.08v81.0496c0 17.3952 12.2624 27.0208 30.6688 27.0208h262.4128c18.4704 0 30.7328-9.6128 30.7328-27.0208v-81.0752h209.5232c21.0816 0 38.1568-16.0896 38.1568-35.968v0.0512z m-101.0304-120.5376l-29.0688-520.5376c-1.0112-19.0464-17.7792-34.048-38.0416-34.048H270.528c-20.2624 0-37.0176 15.0016-38.0288 34.048L203.4176 529.024c-1.1392 19.84 14.9888 36.8256 36.0576 37.8752 21.0816 0.96 38.9248-14.2208 40-34.0608l27.1744-486.4h410.6752l27.1744 486.4c1.088 19.84 19.1744 34.944 40 34.0352 21.0304-1.0112 37.2096-17.9712 36.0576-37.8112v-0.0384z"  horiz-adv-x="1024" />

    
    <glyph glyph-name="Addto" unicode="&#58962;" d="M887.3728 418.24h-341.12v341.12A34.2528 34.2528 0 0 1 512 793.6a34.2528 34.2528 0 0 1-34.2144-34.24v-341.12H136.64a34.24 34.24 0 0 1 0-68.4672h341.1456v-341.1456a34.2272 34.2272 0 0 1 68.4672 0V349.7728h341.12a34.2144 34.2144 0 1 1 0 68.4672z"  horiz-adv-x="1024" />

    
    <glyph glyph-name="Close" unicode="&#58963;" d="M849.2544-25.6C888.832-25.6 921.6 7.168 921.6 46.7456c0 20.4544-8.2176 38.2592-21.8368 50.496L613.0176 384l285.3504 285.3504c13.696 13.6704 21.8496 31.4112 21.8496 50.5088 0 39.616-32.768 72.384-72.3456 72.384-20.4544 0-38.1952-8.2048-50.496-21.8496L512 485.0432 225.2544 771.7504C211.6224 785.4208 193.8816 793.6 174.7456 793.6 135.168 793.6 102.4 760.832 102.4 721.2544c0-20.4928 8.2048-38.2208 21.8496-50.5344L410.9824 384 125.568 100.032c-13.632-13.632-21.7856-31.4496-21.7856-50.5088 0-39.6544 32.704-72.4096 72.3456-72.4096 20.4544 0 38.1952 8.2176 50.5088 21.8496L512 282.9568l286.7456-286.72C810.9824-17.3824 828.736-25.6 849.2544-25.6z"  horiz-adv-x="1024" />

    
    <glyph glyph-name="Allocationauthority" unicode="&#58964;" d="M864.2816 644.992h-127.2832c-22.8608 106.2784-117.4912 186.2272-230.5152 186.2272-113.0112 0-207.6288-79.9488-230.4896-186.2272h-116.288C128.1024 644.992 102.4 619.4688 102.4 588.1344v-594.496c0-31.3344 25.7024-56.8448 57.3184-56.8448h169.5872c19.712 7.1808 16.7296 35.2256 16.7296 35.2256 0 10.2528-5.1456 17.0752-10.752 21.6192H159.7312V588.1344h111.2704c3.584-117.0304 92.6592-212.7616 206.848-226.688v-392.3968a28.672 28.672 0 0 1 28.6592-28.6592h103.4112a28.672 28.672 0 0 1 0 57.3184h-74.752V156.5312h129.6768a28.6464 28.6464 0 0 1 0 57.3184h-129.664V361.4464c114.1888 13.9392 203.264 109.6704 206.848 226.688h122.2656l-0.0896-594.496h-95.2192c-12.0448-10.4064-10.9696-24.6016-10.9696-24.6016 0.6016-24.6016 19.6992-32.256 19.6992-32.256h86.592c31.6032 0 57.3184 25.5104 57.3184 56.8448V588.1344c-0.0256 31.3344-25.7536 56.8576-57.344 56.8576zM506.4832 416.8576c-95.9872 0-174.3104 76.224-178.1504 171.2768h0.0384c-0.1408 11.9296 0.3712 21.7216 1.1776 29.7856 11.136 87.808 86.144 155.9808 176.9344 155.9808 98.4448 0 178.5216-80.0896 178.5216-178.5216 0.0256-98.4448-80.064-178.5216-178.5216-178.5216z m357.7984-451.6352v28.416-28.416z"  horiz-adv-x="1024" />

    
    <glyph glyph-name="Basicfunction" unicode="&#58965;" d="M833.4592 46.7584H362.4448c-48.6528 0-88.128 36.5184-88.128 81.5744V427.2384c0 45.0304 39.5136 81.6512 88.128 81.6512h471.0144c48.512 0 88.1408-36.6208 88.1408-81.6512v-298.9056c0-45.056-39.4368-81.5744-88.1408-81.5744zM362.4448 458.9312c-18.88 0-34.2144-14.1824-34.2144-31.6928v-298.9056c0-17.4976 15.3344-31.6672 34.2144-31.6672h471.0144c18.8288 0 34.2144 14.1568 34.2144 31.6672V427.2384c0 17.4976-15.3856 31.6928-34.2144 31.6928H362.4448zM308.096 259.0464h-117.6064c-48.5504 0-88.0896 36.608-88.0896 81.6768V639.5776c0 45.0304 39.5392 81.664 88.1024 81.664h471.0528c48.6016 0 88.128-36.6336 88.128-81.664V474.496h-53.9776V639.5776c0 17.4976-15.2832 31.6928-34.1504 31.6928H190.5024c-18.8672-0.0256-34.1632-14.208-34.1632-31.6928v-298.8544c0-17.4976 15.3088-31.7184 34.1632-31.7184h117.6064v-49.9584z"  horiz-adv-x="1024" />

    
    <glyph glyph-name="Open" unicode="&#58967;" d="M848.2304-25.6H175.7952A73.4464 73.4464 0 0 0 102.4 47.7696V720.2048A73.4592 73.4592 0 0 0 175.7952 793.6h672.4352A73.4464 73.4464 0 0 0 921.6 720.2048v-672.4352A73.4464 73.4464 0 0 0 848.2304-25.6zM175.7952 720.2048v-672.4352h672.4352V720.2048H175.7952zM298.9056 420.6976h426.1376v-73.3952H298.9056v73.3952z"  horiz-adv-x="1024" />

    
    <glyph glyph-name="Preservation" unicode="&#58968;" d="M795.5328 793.6H228.4544C158.8352 793.6 102.4 737.1648 102.4 667.5712v-567.104C102.4 30.8608 158.8352-25.6 228.4544-25.6h567.0784C865.1392-25.6 921.6 30.8608 921.6 100.4672V667.5712C921.6 737.1648 865.1392 793.6 795.5328 793.6z m-504.1024-63.0272h441.1392v-315.0592a63.0528 63.0528 0 0 0-63.04-63.0528H354.4576a63.04 63.04 0 0 0-63.0272 63.0528V730.5728z m567.1424-630.1056a62.976 62.976 0 0 0-63.04-63.04H228.4544a62.976 62.976 0 0 0-63.0272 63.04V667.5712a62.976 62.976 0 0 0 63.0272 63.0016v-378.112a62.976 62.976 0 0 1 62.976-62.976h441.1392a62.976 62.976 0 0 1 62.9632 62.976v378.112a62.976 62.976 0 0 0 63.04-63.0016v-567.104zM638.0672 415.5136a31.5136 31.5136 0 0 1 31.4752 31.5136V636.0576a31.5136 31.5136 0 0 1-63.0272 0v-189.0304a31.5264 31.5264 0 0 1 31.552-31.5136z"  horiz-adv-x="1024" />

    
    <glyph glyph-name="Labelinformation" unicode="&#58969;" d="M475.456-24.448c-20.5312 0-35.84 5.1072-46.1568 20.4288L121.6512 302.3104c-25.664 25.5232-25.664 71.4752 0 97.0112L511.3984 787.3536c5.1072 5.0944 15.3216 5.0944 20.48 5.0944l302.5664-66.3808c10.2656 0 15.424-10.2144 20.5312-20.4288L921.6 404.4288c0-10.2144 0-15.3088-5.1456-25.5232L526.72-9.1264c-15.3216-10.2144-30.7456-15.3216-51.264-15.3216z m61.5808 765.8496L157.5552 363.5712c-5.1328-10.2144-5.1328-20.4288 0-25.5232l307.6864-306.3424c5.1072-5.0944 15.3728-5.0944 25.6384 0l379.4688 377.8176-61.5424 270.6048-271.7696 61.2736zM624.2048 368.6912c-35.904 0-66.688 15.3088-92.3264 35.7376a129.0496 129.0496 0 0 0 0 183.7952c25.6384 25.5232 56.4224 35.7376 92.3264 35.7376s66.6368-15.3088 92.2752-35.7376c25.6384-25.5232 35.9552-56.1664 35.9552-91.904s-10.3168-66.3808-35.9552-91.904-56.384-35.7248-92.2752-35.7248z m0 204.224c-20.5312 0-41.0496-10.2144-56.4224-20.4288-30.7328-30.6432-30.7328-81.6896 0-112.32 30.7968-30.6432 82.0608-30.6432 112.8064 0 15.424 15.3216 20.5312 35.7376 20.5312 56.1664s-10.2784 40.8448-20.5312 56.1664c-15.3728 15.296-35.9168 20.416-56.384 20.416z"  horiz-adv-x="1024" />

    
    <glyph glyph-name="open" unicode="&#58970;" d="M921.6 588.8L512.0256 179.2 102.4 588.8h819.2z"  horiz-adv-x="1024" />

    
    <glyph glyph-name="search" unicode="&#58971;" d="M913.8688-17.9968a26.88 26.88 0 0 0-37.5168 0L663.9744 190.976a346.7776 346.7776 0 0 0-216.9344-75.7248C256.704 115.2512 102.4 267.072 102.4 454.464 102.4 641.792 256.704 793.6384 447.04 793.6384c190.3616 0 344.6784-151.8464 344.6784-339.1744 0-87.6032-34.048-167.2192-89.4336-227.3664l211.5712-208.1792c10.3168-10.2144 10.3168-26.688 0.0128-36.9152zM447.04 741.3888c-161.0112 0-291.6608-128.4992-291.6608-286.9248 0-158.5408 130.6496-287.04 291.6608-287.04 161.1008 0 291.6992 128.4992 291.6992 287.04 0 158.4384-130.5856 286.9248-291.6992 286.9248z"  horiz-adv-x="1024" />

    
    <glyph glyph-name="Selected" unicode="&#58972;" d="M204.8 793.6h614.4a102.4 102.4 0 0 0 102.4-102.4v-614.4a102.4 102.4 0 0 0-102.4-102.4H204.8a102.4 102.4 0 0 0-102.4 102.4V691.2a102.4 102.4 0 0 0 102.4 102.4zM425.984 15.6672s116.4416 213.5168 250.368 398.1824C779.9168 556.416 908.8 681.2544 908.8 681.2544l-26.9312 71.0912S729.0112 651.392 605.056 527.4496C479.3472 401.728 382.7072 252.8 382.7072 252.8L192.8192 421.7856 115.2 343.2704l310.784-327.6032z"  horiz-adv-x="1024" />

    
    <glyph glyph-name="Stop" unicode="&#58973;" d="M102.4-25.6V793.6h819.2v-819.2H102.4z m756.1728 756.1728H165.4272v-693.1456h693.1456V730.5728z m-378.112-126.0032h63.0784V415.488h189.0432v-62.976H543.5392v-189.0816h-63.0784V352.512H291.4304v62.976h189.0304V604.5696z"  horiz-adv-x="1024" />

    
    <glyph glyph-name="stop" unicode="&#58974;" d="M307.1488 793.5744L716.8 384.0512 307.2512-25.6256l-0.1024 819.2z"  horiz-adv-x="1024" />

    
    <glyph glyph-name="thumbnail" unicode="&#58975;" d="M147.8912 702.6688v-182.2464a45.2352 45.2352 0 0 1 45.4528-45.4016h182.2208a45.184 45.184 0 0 1 45.4144 44.9664V702.6688a45.2096 45.2096 0 0 1-44.9792 45.4144H193.3312a45.2352 45.2352 0 0 1-45.4528-44.9536l0.0128-0.4608z m-45.4912 0A90.7392 90.7392 0 0 0 193.3312 793.6H375.552a90.7136 90.7136 0 0 0 90.9312-90.9312v-182.2464a90.7136 90.7136 0 0 0-90.496-90.9184H193.3312A90.688 90.688 0 0 0 102.4 519.9872V702.6688z m455.1168 0A90.7264 90.7264 0 0 0 648.448 793.6h182.2208A90.752 90.752 0 0 0 921.6 702.6688v-182.2464a90.688 90.688 0 0 0-90.4832-90.9184H648.448a90.688 90.688 0 0 0-90.9312 90.4704V702.6688z m45.5168 0v-182.2464a45.1712 45.1712 0 0 1 45.4144-45.4016h182.2208a45.248 45.248 0 0 1 45.4528 44.9664V702.6688a45.2352 45.2352 0 0 1-45.0176 45.4144H648.448a45.1968 45.1968 0 0 1-45.4144-45.4144zM557.5168 247.552a90.7136 90.7136 0 0 0 90.9312 90.9312h182.2208A90.752 90.752 0 0 0 921.6 247.552v-182.2208A90.688 90.688 0 0 0 831.1168-25.6H648.448a90.7136 90.7136 0 0 0-90.9312 90.4832V247.552z m45.5168 0v-182.2208a45.2096 45.2096 0 0 1 45.4144-45.4528h182.2208a45.2864 45.2864 0 0 1 45.4528 45.0048V247.552a45.2096 45.2096 0 0 1-45.0176 45.4016H648.448a45.184 45.184 0 0 1-45.4144-45.4016zM102.4 247.552a90.7264 90.7264 0 0 0 90.9312 90.9312H375.552a90.7136 90.7136 0 0 0 90.9312-90.9312v-182.2208A90.7264 90.7264 0 0 0 375.9872-25.6H193.3312A90.6752 90.6752 0 0 0 102.4 64.8704V247.552z m45.4912 0v-182.2208a45.2736 45.2736 0 0 1 45.4528-45.4528h182.2208a45.2352 45.2352 0 0 1 45.4144 45.0048V247.552a45.184 45.184 0 0 1-44.9792 45.4016H193.3312a45.2224 45.2224 0 0 1-45.44-45.4016z"  horiz-adv-x="1024" />

    
    <glyph glyph-name="list" unicode="&#58976;" d="M887.104 148.9792h-502.912c-19.0208 0-34.4832-15.552-34.4832-34.7776a34.624 34.624 0 0 1 34.4832-34.7392h502.912A34.6112 34.6112 0 0 1 921.6 114.2016a34.624 34.624 0 0 1-34.496 34.7776z m0 269.76h-502.912c-19.0208 0-34.4832-15.552-34.4832-34.8032 0-19.2 15.4624-34.7136 34.4832-34.7136h502.912A34.5856 34.5856 0 0 1 921.6 383.936c0 19.2512-15.4368 34.8032-34.496 34.8032z m-502.912 200.2048h502.912A34.6112 34.6112 0 0 1 921.6 653.7216c0 19.2-15.4368 34.7776-34.496 34.7776h-502.912c-19.0208 0-34.4832-15.5648-34.4832-34.7776a34.624 34.624 0 0 1 34.4832-34.7776z m-161.7664 112.64h-85.5424A34.6112 34.6112 0 0 1 102.4 696.8448v-86.2208c0-19.1872 15.424-34.816 34.4832-34.816h85.5424c19.072 0 34.496 15.6544 34.496 34.816v86.2208a34.6112 34.6112 0 0 1-34.496 34.7392z m0-269.7344h-85.5424C117.824 461.8496 102.4 446.2592 102.4 427.0464v-86.1696a34.6112 34.6112 0 0 1 34.4832-34.7776h85.5424a34.6112 34.6112 0 0 1 34.496 34.7776v86.1696c0 19.2128-15.424 34.8032-34.496 34.8032z m0-269.7472h-85.5424C117.824 192.1024 102.4 176.5504 102.4 157.2864v-86.1696a34.5984 34.5984 0 0 1 34.4832-34.7008h85.5424a34.5984 34.5984 0 0 1 34.496 34.7008v86.1696c0 19.264-15.424 34.816-34.496 34.816z"  horiz-adv-x="1024" />

    
    <glyph glyph-name="upload" unicode="&#58977;" d="M730.432 176.0128a249.8048 249.8048 0 0 0-54.6432 10.4064c-13.4656 4.608-20.4032 18.7904-15.5392 31.5776 4.6976 12.3648 18.7136 19.0208 31.9104 15.2064a111.2192 111.2192 0 0 1 38.2592-5.184c74.624-0.7296 135.744 56.3328 136.512 127.4496v2.5472c1.472 61.76-45.1584 115.072-109.248 124.8l-16.3328 5.2096-5.504 10.3936c-36.4928 87.4624-125.0432 145.088-223.9104 145.6256-100.1856-0.3328-190.4768-57.664-229.3248-145.6256l-5.504-10.3936-10.9312-5.2096c-73.1776-13.6064-120.9216-81.152-106.6624-150.8736 12.5312-60.864 68.8256-104.5888 134.016-103.9232a111.2832 111.2832 0 0 1 38.208 5.184c13.6704 3.9808 28.1472-3.3792 32.3328-16.4096 4.0192-12.544-2.9952-25.92-15.9488-30.3616-17.7408-5.504-36.0576-8.9728-54.6048-10.4064C188.4928 177.2032 103.6672 257.9968 102.4 358.016c1.7792 80.4608 56.4224 151.1936 136.4992 176.8192 50.112 99.9552 156.7744 162.9184 273.0496 161.2032 115.8912 0.3456 221.8752-62.2208 273.088-161.2032 82.4576-22.4768 138.5856-95.1552 136.512-176.8192-1.28-100.0192-86.0928-180.8128-191.1168-182.0032z m-218.4832-104.0384c-14.208-0.8064-26.4064 9.5232-27.3024 23.0656a37.2992 37.2992 0 0 0 0 2.9312V430.8224c0.0384 14.3744 12.2752 25.984 27.3536 25.984 15.0656-0.0256 27.2512-11.648 27.3024-25.984v-332.8512c0.832-13.5552-9.984-25.1392-24.2176-25.984a28.48 28.48 0 0 0-3.136-0.0128z m120.1664 208.0384a42.0096 42.0096 0 0 0-21.8368 10.4064l-98.3296 109.1968-103.7312-109.1968c-10.4576-10.1632-27.5584-10.3424-38.2208-0.384a24.8832 24.8832 0 0 0 0 36.7872l120.128 129.9968c9.0624 11.4944 26.1632 13.824 38.2592 5.184 2.0352-1.4848 3.904-3.2128 5.4656-5.184l120.128-135.2064a24.32 24.32 0 0 0 0.8832-35.5456c-0.2688-0.2944-0.6016-0.576-0.8832-0.8448a33.856 33.856 0 0 0-21.8624-5.2096z"  horiz-adv-x="1024" />

    
    <glyph glyph-name="Unchecked" unicode="&#58978;" d="M801.1264-25.6H222.8736C156.4544-25.6 102.4 28.4288 102.4 94.8736V673.1264C102.4 739.5456 156.4544 793.6 222.8736 793.6h578.2528C867.5712 793.6 921.6 739.5456 921.6 673.1264v-578.2528C921.6 28.4288 867.5712-25.6 801.1264-25.6zM222.8736 745.408a72.3584 72.3584 0 0 1-72.2816-72.2816v-578.2528a72.3584 72.3584 0 0 1 72.2816-72.2816h578.2528a72.3584 72.3584 0 0 1 72.2816 72.2816V673.1264a72.3584 72.3584 0 0 1-72.2816 72.2816H222.8736z"  horiz-adv-x="1024" />

    
    <glyph glyph-name="Dominanthue" unicode="&#58979;" d="M865.8304 242.6112c-117.3632-176.768-311.1424-249.92-516.5568-195.008-23.5008 6.0544-29.4016 24.3456-17.6 91.4176 0 36.544 5.8496 73.1008-11.8016 97.4976-23.4496 18.3168-52.8 24.4096-82.1504 24.4096-41.0752 6.1056-64.576 12.1984-76.3136 48.7552-11.7504 30.4512 0 262.1056 193.728 365.7088 211.3152 109.7344 369.8432 36.5696 446.1952-12.1856 11.6992-12.1984 29.312-6.1056 41.0624 6.1056 11.7504 12.1856 5.8496 30.4512-5.8496 42.6624-70.464 48.7552-258.3424 146.2912-510.7584 18.304C96.8064 608.32 90.9312 340.1216 108.5568 291.3792c23.4752-73.1648 88.064-79.2576 123.2896-85.3632 17.6 0 35.2-6.1056 41.1008-6.1056v-42.5984c-5.9008-48.8064-17.6512-134.1184 64.5504-158.528 52.8512-12.1984 105.664-24.3968 152.6272-24.3968 170.2656 0 322.88 85.3632 428.5312 237.7216 5.8496 12.1984 0 30.5024-11.7504 42.7136-11.6864 6.1056-29.2864 6.1056-41.0752-12.2112M390.3744 492.5312c0-36.5696 23.4624-60.9536 58.7008-60.9536 35.2128 0 58.7136 24.384 58.7136 60.9536 0 36.5568-23.5008 60.928-58.7136 60.928-35.2512 0.0128-58.7008-24.3712-58.7008-60.928m-117.4144-121.8944c0-36.608 23.4624-60.9664 58.7008-60.9664 35.2 0 58.7008 24.3456 58.7008 60.9664 0 36.544-23.5008 60.9408-58.7008 60.9408-35.2512 0-58.7008-24.3968-58.7008-60.9408M683.904 553.472c0 36.5824-23.5008 60.9664-58.7008 60.9664-35.264 0-58.7648-24.384-58.7648-60.9664 0-36.544 23.5008-60.928 58.7648-60.928 35.2-0.0128 58.7008 30.4512 58.7008 60.928M519.488 139.008c11.7504-6.1184 52.8512 12.1984 64.6016 24.3968l328.7424 347.4048a30.2976 30.2976 0 0 1 0 42.6496c-11.7504 12.2112-29.3504 12.2112-41.1008 0L542.9888 206.016c-11.7504-12.1472-23.5008-60.9024-23.5008-67.008"  horiz-adv-x="1024" />

    
    <glyph glyph-name="Typeface" unicode="&#58980;" d="M102.4 820.8512v-873.7024h819.2V820.8512H102.4z m750.5024-800.4736H171.0336V747.6864h681.8688v-727.3088z m-118.5536 593.0752v-126.336l-49.1136 65.7664H556.7104v-366.0544h89.3696v-32.2688h-263.552v32.2688h88.2688V552.8704h-132.096l-49.0624-65.7664v126.336h444.7104z"  horiz-adv-x="1024" />

    
    <glyph glyph-name="Selectfile" unicode="&#58981;" d="M859.7504 42.6496H164.2496C130.1632 42.6496 102.4 71.1424 102.4 106.0864V661.888c0 34.9824 27.7632 63.4624 61.8496 63.4624h295.5648c14.3232 0 27.4432-7.8464 34.0736-20.3008l97.6256-181.9392h253.2608c34.0736 0 76.8256-40.8576 76.8256-75.84v-341.0688c0-35.0592-27.6608-63.552-61.8496-63.552zM196.288 102.912h631.3088c18.9824 0 34.5088 15.2064 34.5088 34.0224v284.288c0 22.3104-18.2784 40.3072-40.8192 40.3072H578.624c-15.424 0-29.632 8.3968-36.6592 21.888l-95.488 168.6656a34.5472 34.5472 0 0 1-30.4512 18.0864H196.288c-19.0464 0-34.5216-15.2064-34.5216-34.0224v-499.328c0.1152-18.7008 15.488-33.9072 34.5216-33.9072zM826.2272 490.6624c-21.5168-0.4352-39.1296 17.4208-39.1296 38.6816v59.136c0 15.0016-12.3008 28.8384-27.4432 28.8384H516.544c-21.5168 0-39.5648 17.4208-39.232 38.5792 0.4352 20.6336 17.4464 24.3584 38.3616 24.3584H791.168c35.2256 0 63.9872-40.9344 63.9872-75.84v-75.8144c0.0896-20.7232-8.128-37.5168-28.928-37.9392z"  horiz-adv-x="1024" />

    
    <glyph glyph-name="Recommend" unicode="&#58982;" d="M185.6 57.6l652.8 652.8h-435.2l-217.6-204.8v-448zM295.7952 408.6272a473.536 473.536 0 0 1-1.4848 16.768l74.2144-84.224 9.9712 8.8064-8.6784 9.8304 71.9488 63.4112-7.6288 8.6656-34.6752-30.5408-18.2784 20.736 30.72 27.072-7.872 8.9216-30.72-27.0592-17.92 20.352 30.72 27.072-7.872 8.9216-30.72-27.0592-17.92 20.3392 32.5632 28.6976-7.8592 8.9216-65.6512-57.8432a409.1776 409.1776 0 0 1-7.2064 29.3376l-12.736-5.3888c8.064-26.6368 12.48-51.5968 13.248-74.8672a94.08 94.08 0 0 0 13.8368-0.8704z m-17.1008-60.7744c3.584 5.7984 7.4368 11.9552 11.52 18.4192l31.5264-35.776c2.9952-3.4304 2.8544-6.6048-0.4864-9.5232a181.376 181.376 0 0 0-10.9568-8.7296c4.0064-3.1488 7.7312-6.3232 11.1744-9.5232 4.6336 3.9296 9.024 7.9488 13.1712 12.0704 6.528 6.528 5.8496 14.2464-2.0096 23.1808l-35.0592 39.7824c3.8144 6.0032 7.8464 12.2752 12.1088 18.8288a125.248 125.248 0 0 0-9.9456 9.4208c-3.5456-5.6704-7.3472-11.5968-11.4176-17.7536l-25.8048 29.2864 15.232 13.4272-8.1024 9.2032-15.232-13.4272-21.9776 24.9472-9.856-8.6784 21.9776-24.9472-16.0128-14.1312 8.1024-9.1776 16.0128 14.1056 28.0576-31.8464c-4.1984-6.1696-8.6272-12.5312-13.2992-19.0464l11.2768-10.112z m65.2288 41.3568l27.3152 24.064 18.2784-20.736-27.3152-24.064-18.2784 20.736z m-25.792 29.2864l27.3152 24.0768 17.92-20.352-27.3024-24.0768-17.9328 20.352z m-25.8048 29.2864l27.3152 24.064 17.92-20.352-27.3024-24.064-17.9328 20.352z m26.2656 40.8704l4.0832 13.632a385.28 385.28 0 0 1-26.1632 5.8624l-3.7632-12.416c9.2032-2.1376 17.8176-4.5056 25.8432-7.0784zM391.7184 509.4656l30.72 27.072c4.5312-24.7168 4.8512-48.3712 0.9728-70.9888 3.84-0.8064 8.4736-1.9328 13.9264-3.3664 1.728 11.4688 2.3808 23.5136 1.9712 36.1472l45.7472-51.9296 9.9712 8.7936-57.4848 65.2544a284.1856 284.1856 0 0 1-4.3392 25.5744l81.6768 71.9616-8.1024 9.1904-76.8128-67.6864c-0.7424 2.8544-1.4976 5.76-2.3168 8.704l-10.368-9.1392c0.8064-2.944 1.5488-5.8624 2.24-8.7552l-35.9168-31.6416 8.1152-9.1904z m83.7632-12.48l39.5264 34.8288 14.0032-15.8848c4.3264-4.9024 4.1984-9.3568-0.3456-13.3632-6.656-5.8624-14.3104-11.9936-22.976-18.3936 4.0064-3.1488 7.7056-6.1824 11.072-9.1264 9.792 8.4736 17.4464 15.1424 22.9504 20.0064 9.5488 8.4096 9.7792 17.7792 0.6784 28.1088l-15.3984 17.4592 34.5344 30.4256-8.1024 9.1776-34.5344-30.4256-2.304 2.624 11.2384 38.592-7.8592 8.9344-67.8912-59.8144 7.8592-8.9216 51.5968 45.4656-8.2816-29.2352 5.6576-6.4256-39.5264-34.8288 8.1024-9.2032z m-106.24 37.4656l34.6752 30.5408 7.1808-8.1408 9.9712 8.7936-7.1808 8.1408 36.5056 32.1664 8.448-9.5872 9.9712 8.7936-8.448 9.5872 34.1504 30.08-8.1024 9.1904-34.1504-30.08-10.4064 11.8144-9.9712-8.7936 10.4064-11.8144-36.5056-32.1664-10.304 11.6864-9.9712-8.7936 10.304-11.6864-34.6624-30.5408 8.0896-9.1904z"  horiz-adv-x="1024" />

    
    <glyph glyph-name="news" unicode="&#59187;" d="M512-33.5104c-37.7088 0-68.2752 30.84288-68.2752 68.8128H375.4496c0.0256-76.01152 61.1584-137.68192 136.5504-137.68192 75.392 0 136.5248 61.6704 136.5248 137.68192H580.2496c0-37.9392-30.5408-68.8128-68.2496-68.8128zM948.84352 164.8896a51.05664 51.05664 0 0 1-36.20352 14.99648H819.2V520.53504c0 139.87328-102.55872 256.768-239.79008 286.1056-4.9152 33.13152-33.16736 58.624-67.40992 58.624-34.24768 0-62.52032-25.49248-67.43552-58.62912C307.36384 777.28256 204.8 660.39808 204.8 520.53504v-340.64896H111.36a51.0464 51.0464 0 0 1-36.20352-14.99648 51.03616 51.03616 0 0 1-14.99648-36.20352V92.16h903.68v36.52608a51.05664 51.05664 0 0 1-14.99648 36.20352zM273.0752 520.53504c0 125.9264 106.9824 228.1472 238.9248 228.1472 131.968 0 238.9248-102.1952 238.9248-228.1472v-340.64896h-477.8496V520.53504z"  horiz-adv-x="1024" />

    
    <glyph glyph-name="User" unicode="&#58983;" d="M692.3264 253.952c-32.01024 14.39744-69.9392 42.22976-137.97376 50.7904 20.56192 16.03584 30.08512 49.0496 47.59552 94.18752 0.26624 0.65536 0.43008 1.35168 0.69632 2.02752 3.93216-0.7168 7.92576-0.67584 10.83392 1.18784 8.15104 5.18144 13.12768 33.42336 13.25056 47.18592 0.22528 20.62336-9.95328 18.59584-9.95328 18.59584l-0.512 0.14336c0.04096 1.65888 0.14336 3.29728 0.14336 4.93568 0 18.6368 3.74784 50.13504-1.14688 67.6864-7.35232 26.48064-5.85728 36.4544-19.2512 50.81088-19.0464 20.39808-70.41024 47.3088-125.56288 35.04128-32.17408-7.14752-16.83456-30.6176-27.87328-30.43328-19.47648 0.32768-28.30336-29.14304-35.61472-55.6032-4.7104-17.05984-1.10592-48.14848-1.10592-67.50208 0-1.61792 0.1024-3.23584 0.14336-4.85376l-0.8192-0.22528s-10.19904 2.02752-9.97376-18.59584c0.16384-13.76256 5.12-42.00448 13.29152-47.18592 2.99008-1.90464 7.14752-1.90464 11.18208-1.14688 0.28672-0.73728 0.512-1.49504 0.79872-2.21184 17.7152-45.52704 26.76736-78.336 47.47264-94.208-67.33824-8.8064-104.96-36.39296-136.78592-50.76992-64.49152-29.06112-64.9216-61.3376-64.9216-61.3376v-54.12864l491.52 0.08192v54.04672s-0.69632 32.37888-65.4336 61.48096z"  horiz-adv-x="1024" />

    
    <glyph glyph-name="Password" unicode="&#58984;" d="M419.84 414.72v81.92c5.24288 57.32352 33.46432 81.92 92.16 81.92s86.89664-24.59648 92.16-81.92v-40.96h40.96v40.96h-1.04448c-5.3248 68.64896-62.07488 122.88-132.07552 122.88-70.02112 0-126.7712-54.23104-132.096-122.88h-1.024v-81.92h-61.44v-266.24h389.12v266.24h-286.72z m103.5264-150.60992L522.24 230.4h-20.48l-1.14688 33.71008a33.93536 33.93536 0 0 0-22.7328 31.98976c0 18.82112 15.27808 34.05824 34.11968 34.05824s34.0992-15.23712 34.0992-34.05824c0-14.82752-9.5232-27.29984-22.7328-31.98976z"  horiz-adv-x="1024" />

    
    <glyph glyph-name="edit" unicode="&#58966;" d="M916.8256 577.408L727.2064 763.5072c-20.864 20.5312-54.8736 20.5312-75.776 0L177.472 298.3808c-17.792-45.3376-49.7024-239.5264-60.4032-312.768 8.0384-7.9232 12.4672-17.7024 22.5152-22.1312 70.6176 10.5344 277.4784 65.3056 303.3344 74.4576l473.8944 465.0752a51.9168 51.9168 0 0 1 0.0128 74.3936z m-720.4096-558.08l-18.9312 18.6112 16.2816 95.6544 92.0576-90.3808-89.408-23.8848z m208.576 55.8464l-59.5456-16.0384-140.8384 138.2144 10.816 63.808 379.1104 372.096 37.952-37.1968L272.3072 242.55999999999995l37.888-37.184 360.1792 353.4848 37.9008-37.1968L423.936 242.55999999999995l37.9392-37.184 284.3392 279.04 37.9136-37.1968-379.136-372.0448z m417.0624 409.2416L632.4864 670.4639999999999l56.832 55.8464 189.5552-186.0992-56.8192-55.7952z"  horiz-adv-x="1024" />

    
    <glyph glyph-name="admin" unicode="&#58986;" d="M554.29632 18.283519999999953c-224.98816 0-408.00768 183.04-408.00768 407.99232 0 224.98816 183.02464 408.00768 408.00768 408.00768 224.96768 0 408.00768-183.01952 408.00768-408.00768-0.02048-224.95232-183.06048-407.99232-408.00768-407.99232z m0 802.28864c-217.41568 0-394.29632-176.87552-394.29632-394.29632s176.87552-394.27584 394.29632-394.27584c217.41568 0 394.29632 176.88064 394.29632 394.29632-0.00512 217.41568-176.90112 394.27584-394.29632 394.27584zM698.26048 268.288l-263.79264-0.06144c-8.48384 0-15.30368-6.79936-15.30368-15.26272s6.82496-15.26784 15.30368-15.26784l263.79264 0.05632a15.27296 15.27296 0 0 1 0 30.53568z m60.672 271.19616a27.32544 27.32544 0 0 1-25.18016-38.03648l-89.12384-36.92032-62.66368 107.44832a27.28448 27.28448 0 0 1-15.54432 49.75616c-15.104 0-27.35616-12.21632-27.35616-27.28448 0-9.23648 4.608-17.37216 11.61216-22.32832l-69.56032-107.52-81.25952 36.31616a27.29984 27.29984 0 0 1-24.93952 38.47168c-15.12448 0-27.48416-12.12416-27.48416-27.19232a27.32544 27.32544 0 0 1 26.77248-27.29984l42.38336-182.37952a15.2576 15.2576 0 0 1 14.9248-11.83232h269.58336a15.21664 15.21664 0 0 1 14.90432 11.83232l42.46016 182.37952h0.4352a27.32544 27.32544 0 0 1 28.53888 26.05056 27.33056 27.33056 0 0 1-28.50304 28.53888z m-69.92896-218.27584h-245.2992L410.88 462.49984l69.66784-31.1552a15.33952 15.33952 0 0 1 19.12832 5.66784l66.048 102.16448 59.20768-101.52448a15.27296 15.27296 0 0 1 19.07712-6.43584l78.13632 32.384-33.14176-142.39232z"  horiz-adv-x="1132" />

    


  </font>
</defs>
</svg>
