<?xml version="1.0" standalone="no"?><!DOCTYPE svg PUBLIC "-//W3C//DTD SVG 1.1//EN" "http://www.w3.org/Graphics/SVG/1.1/DTD/svg11.dtd"><svg t="1573810016119" class="icon" viewBox="0 0 1024 1024" version="1.1" xmlns="http://www.w3.org/2000/svg" p-id="8335" xmlns:xlink="http://www.w3.org/1999/xlink" width="200" height="200"><defs><style type="text/css"></style></defs><path d="M115.2 25.6v972.8c0 12.8 12.8 25.6 25.6 25.6h742.4c12.8 0 25.6-12.8 25.6-25.6V25.6c0-12.8-12.8-25.6-25.6-25.6H140.8c-12.8 0-25.6 12.8-25.6 25.6zM390.4 768H204.8c-12.8 0-25.6-12.8-25.6-25.6V352c0-12.8 12.8-25.6 25.6-25.6H384c12.8 0 25.6 12.8 25.6 25.6v390.4c6.4 12.8-6.4 25.6-19.2 25.6z m0-518.4H204.8c-12.8 0-25.6-12.8-25.6-25.6v-44.8c0-12.8 12.8-25.6 25.6-25.6H384c12.8 0 25.6 12.8 25.6 25.6v44.8c6.4 12.8-6.4 25.6-19.2 25.6z m76.8 256H448V428.8h19.2l-6.4 12.8v44.8l6.4 19.2z m51.2 518.4h-12.8V0h12.8v1024zM576 505.6h-19.2l6.4-12.8v-51.2l-6.4-12.8H576v76.8z m243.2 262.4H633.6c-12.8 0-25.6-12.8-25.6-25.6V352c0-12.8 12.8-25.6 25.6-25.6h179.2c12.8 0 25.6 12.8 25.6 25.6v390.4c6.4 12.8-6.4 25.6-19.2 25.6z m0-518.4H633.6c-12.8 0-25.6-12.8-25.6-25.6v-44.8c0-12.8 12.8-25.6 25.6-25.6h179.2c12.8 0 25.6 12.8 25.6 25.6v44.8c6.4 12.8-6.4 25.6-19.2 25.6z" p-id="8336" data-spm-anchor-id="a313x.7781069.0.i3"></path></svg>