<?xml version="1.0" standalone="no"?><!DOCTYPE svg PUBLIC "-//W3C//DTD SVG 1.1//EN" "http://www.w3.org/Graphics/SVG/1.1/DTD/svg11.dtd"><svg t="1573549405563" class="icon" viewBox="0 0 1024 1024" version="1.1" xmlns="http://www.w3.org/2000/svg" p-id="4064" xmlns:xlink="http://www.w3.org/1999/xlink" width="200" height="200"><defs><style type="text/css"></style></defs><path d="M959 481.9c-3.3-49.8-14.7-98.3-34.2-144.3-22.6-53.3-54.9-101.3-96-142.4-41.2-41.2-89.1-73.5-142.4-96-46-19.5-94.5-30.9-144.3-34.2v-1H482v1c-49.8 3.3-98.3 14.7-144.3 34.2-53.3 22.6-101.3 54.9-142.4 96-41.2 41.2-73.5 89.1-96 142.4-19.5 46-30.9 94.5-34.2 144.3h-1V542h1c3.3 49.8 14.7 98.3 34.2 144.3 22.6 53.3 54.9 101.3 96 142.4 41.2 41.2 89.1 73.5 142.4 96 46 19.5 94.5 30.9 144.3 34.2v1h60.2v-1c49.8-3.3 98.2-14.7 144.2-34.2 53.3-22.6 101.3-54.9 142.4-96 41.2-41.2 73.5-89.1 96-142.4 19.5-46 30.9-94.5 34.2-144.3h1v-60.1h-1zM512.1 673.6c-89.1 0-161.5-72.5-161.5-161.6v-5.2c2.8-86.7 74.1-156.3 161.5-156.3h5.3c86.6 2.8 156.3 74.1 156.3 161.5-0.1 89.1-72.6 161.5-161.6 161.6z m-30.2-548.4v167.1l-2.1 0.3c-0.4 0.1-0.9 0.1-1.3 0.2-1.1 0.2-2.1 0.3-3.1 0.5-0.8 0.1-1.5 0.2-2.3 0.4-0.3 0-0.5 0.1-0.8 0.1-30.8 5.5-59.9 17.5-85.6 35.2l-0.1 0.1c-1.2 0.8-2.3 1.6-3.5 2.4-0.2 0.1-0.3 0.2-0.5 0.4l-3.3 2.4c-0.1 0-0.1 0.1-0.2 0.1-2 1.5-4 3.1-6 4.7-0.3 0.3-0.7 0.6-1 0.8-0.7 0.6-1.4 1.1-2 1.7-0.6 0.5-1.3 1.1-1.9 1.6-0.6 0.5-1.2 1-1.8 1.6-0.7 0.6-1.4 1.3-2.1 1.9-0.5 0.5-1.1 1-1.6 1.4-0.8 0.7-1.6 1.5-2.4 2.3-0.4 0.4-0.9 0.8-1.3 1.2-1.2 1.2-2.4 2.4-3.7 3.6-1.2 1.2-2.4 2.4-3.6 3.7-0.4 0.4-0.7 0.8-1.1 1.2-0.8 0.9-1.6 1.7-2.4 2.6-0.4 0.5-0.8 0.9-1.2 1.4-0.7 0.8-1.5 1.7-2.2 2.5-0.4 0.5-0.8 0.9-1.2 1.4-0.8 0.9-1.6 1.8-2.3 2.8-0.3 0.4-0.6 0.8-1 1.2-1.1 1.3-2.1 2.6-3.2 3.9-0.1 0.2-0.3 0.4-0.4 0.5-0.9 1.2-1.8 2.3-2.7 3.5-0.3 0.4-0.7 0.9-1 1.4-0.7 0.9-1.3 1.8-2 2.8-0.4 0.5-0.7 1-1.1 1.5-0.6 0.9-1.3 1.8-1.9 2.8-0.3 0.5-0.6 1-1 1.4-0.7 1.1-1.4 2.1-2.1 3.2-0.2 0.3-0.4 0.7-0.6 1-0.9 1.4-1.8 2.9-2.7 4.3-0.1 0.2-0.2 0.3-0.3 0.5-0.8 1.3-1.5 2.6-2.3 3.9-0.2 0.4-0.4 0.8-0.6 1.1l-1.8 3.3c-0.2 0.4-0.4 0.8-0.7 1.2-0.6 1.2-1.2 2.3-1.8 3.5-0.2 0.3-0.3 0.6-0.5 1-2.3 4.7-4.5 9.4-6.5 14.2-0.1 0.1-0.1 0.3-0.2 0.4l-1.8 4.5c-0.1 0.1-0.1 0.3-0.2 0.4-5.8 15-9.9 30.6-12.3 46.6 0 0.1 0 0.3-0.1 0.4-0.1 0.9-0.3 1.7-0.4 2.6H125.2c14.7-189.9 166.7-342 356.7-356.7z m60.3 773.6V731.7l1.8-0.3c0.5-0.1 1.1-0.2 1.6-0.2 0.9-0.1 1.8-0.3 2.8-0.4 0.9-0.1 1.7-0.3 2.6-0.4 0.1 0 0.2 0 0.3-0.1 30.9-5.5 60.1-17.5 86-35.3 0.1-0.1 0.2-0.1 0.3-0.2 1.1-0.8 2.2-1.6 3.4-2.4 0.2-0.1 0.4-0.3 0.6-0.4 1.1-0.8 2.1-1.6 3.2-2.4 0.1-0.1 0.2-0.1 0.3-0.2 2-1.5 4-3 5.9-4.6 0.4-0.3 0.7-0.6 1.1-0.9 0.7-0.6 1.4-1.1 2-1.7 0.6-0.5 1.3-1.1 1.9-1.6 0.6-0.5 1.2-1 1.8-1.6 0.7-0.6 1.4-1.2 2.1-1.9 0.5-0.5 1.1-1 1.6-1.5 0.8-0.7 1.6-1.5 2.4-2.2 0.4-0.4 0.9-0.8 1.3-1.2l3.6-3.6c1.2-1.2 2.4-2.4 3.6-3.7l1.2-1.2c0.8-0.8 1.6-1.7 2.3-2.5 0.4-0.5 0.9-1 1.3-1.5l2.1-2.4c0.4-0.5 0.9-1 1.3-1.5 0.7-0.8 1.4-1.7 2.1-2.5 0.4-0.5 0.8-0.9 1.1-1.4 1-1.3 2.1-2.5 3.1-3.8 0.3-0.3 0.5-0.7 0.8-1 0.8-1 1.5-2 2.3-3 0.4-0.5 0.8-1.1 1.2-1.6 0.6-0.8 1.2-1.7 1.8-2.5 0.4-0.6 0.8-1.1 1.2-1.7 0.6-0.8 1.2-1.7 1.7-2.5 0.4-0.6 0.8-1.1 1.1-1.7 0.6-1 1.3-1.9 1.9-2.9 0.3-0.4 0.6-0.9 0.9-1.3 0.9-1.4 1.8-2.8 2.6-4.2 0.2-0.3 0.3-0.6 0.5-0.9 0.7-1.2 1.4-2.3 2-3.5 0.3-0.5 0.5-0.9 0.8-1.4 0.6-1 1.2-2.1 1.7-3.1 0.3-0.5 0.5-0.9 0.7-1.4 0.6-1.1 1.2-2.2 1.7-3.3 0.2-0.4 0.4-0.8 0.6-1.1 0.7-1.5 1.5-2.9 2.2-4.4v-0.1c1.5-3.2 2.9-6.4 4.3-9.7 0.1-0.2 0.1-0.3 0.2-0.5 0.6-1.5 1.2-2.9 1.8-4.4 0.1-0.2 0.1-0.3 0.2-0.5 5.8-15 9.9-30.6 12.2-46.6v-0.3c0.1-0.9 0.3-1.7 0.4-2.6h167.1C884.1 732 732 884.1 542.2 898.8z" p-id="4065" fill="#ffffff"></path></svg>