<?xml version="1.0" standalone="no"?><!DOCTYPE svg PUBLIC "-//W3C//DTD SVG 1.1//EN" "http://www.w3.org/Graphics/SVG/1.1/DTD/svg11.dtd"><svg t="1573549411567" class="icon" viewBox="0 0 1024 1024" version="1.1" xmlns="http://www.w3.org/2000/svg" p-id="4231" xmlns:xlink="http://www.w3.org/1999/xlink" width="200" height="200"><defs><style type="text/css"></style></defs><path d="M831.849412 85.413647S671.141647 20.781176 508.687059 20.781176c-160.707765 0-290.936471 64.632471-290.936471 64.632471-35.659294 0-96.978824 28.912941-96.978823 64.632471V828.837647c0 35.659294 28.973176 64.632471 64.692706 64.632471v64.63247c0 17.829647 14.456471 32.346353 32.346353 32.346353h96.978823c17.829647 0 32.286118-14.456471 32.286118-32.346353v-64.63247h323.162353v64.63247c0 17.829647 14.456471 32.346353 32.346353 32.346353h96.978823c17.829647 0 32.286118-14.456471 32.286118-32.346353v-64.63247c35.719529 0 64.632471-28.973176 64.63247-64.632471V149.985882c0-35.659294-28.912941-64.632471-64.63247-64.63247z m-452.427294 34.695529H637.891765a32.346353 32.346353 0 0 1 0 64.692706H379.482353a32.346353 32.346353 0 1 1 0-64.692706zM266.24 796.431059a80.775529 80.775529 0 1 1 0-161.551059 80.775529 80.775529 0 0 1 0 161.551059z m402.552471-321.536H286.900706a24.696471 24.696471 0 0 1-24.696471-24.696471V302.381176a24.696471 24.696471 0 0 1 24.696471-24.69647h443.572706c13.613176 0 24.696471 11.083294 24.69647 24.69647v147.817412c0 13.613176-11.083294 24.696471-24.69647 24.696471H668.852706z m82.221176 321.536a80.775529 80.775529 0 1 1 0-161.551059 80.775529 80.775529 0 0 1 0 161.551059z" fill="#ffffff" p-id="4232"></path></svg>