<?xml version="1.0" standalone="no"?><!DOCTYPE svg PUBLIC "-//W3C//DTD SVG 1.1//EN" "http://www.w3.org/Graphics/SVG/1.1/DTD/svg11.dtd"><svg t="1573809287069" class="icon" viewBox="0 0 1024 1024" version="1.1" xmlns="http://www.w3.org/2000/svg" p-id="1954" xmlns:xlink="http://www.w3.org/1999/xlink" width="200" height="200"><defs><style type="text/css"></style></defs><path d="M197.264 811.345h629.394c37.785 0 68.415-30.631 68.415-68.415v-504.452c0-72.442-58.725-131.167-131.167-131.167h-503.889c-72.442 0-131.167 58.725-131.167 131.167v504.452c0 37.785 30.631 68.415 68.415 68.415zM830.589 748.924h-64.468v-126.949h64.468v126.949zM575.69 237.271h255.338v255.827h-255.338v-255.827zM194.689 237.271h253.335v255.827h-253.335v-255.827zM194.689 621.974h64.468v126.95h-64.468v-126.95z" p-id="1955"></path><path d="M894.949 875.75h-766.217v61.395h319.566v64.465h127.395v-64.465h319.255z" p-id="1956"></path></svg>