<?xml version="1.0" standalone="no"?><!DOCTYPE svg PUBLIC "-//W3C//DTD SVG 1.1//EN" "http://www.w3.org/Graphics/SVG/1.1/DTD/svg11.dtd"><svg t="1573549966177" class="icon" viewBox="0 0 1024 1024" version="1.1" xmlns="http://www.w3.org/2000/svg" p-id="8548" xmlns:xlink="http://www.w3.org/1999/xlink" width="200" height="200"><defs><style type="text/css"></style></defs><path d="M467.648 634.56l36.48-112.128 53.952 277.504 102.528-201.6h67.84l43.456-43.392 50.944 50.944 136.896 1.152a32 32 0 0 0 0.512-64l-110.72-0.896-77.632-77.696-69.952 69.888h-80.64l-35.904 70.656-65.6-337.408-80.64 247.936-97.088-97.088-124.352 124.352H74.496a32 32 0 0 0 0 64h169.728l97.856-97.856 125.568 125.632z" p-id="8549"></path><path d="M298.112 66.432c86.08 0 163.008 33.536 214.016 86.208 51.008-52.672 127.936-86.208 213.952-86.208 151.424 0 274.56 103.872 278.016 233.152 0.768 8.96 1.152 18.752 1.152 29.248 0 257.216-505.216 623.488-505.216 623.488S18.88 585.984 18.88 328.832c0-12.16 0.448-23.296 1.408-33.472 5.952-127.36 128.064-228.928 277.824-228.928z m240.64 774.912a2418.304 2418.304 0 0 0 169.152-150.016c74.304-72.832 134.656-143.36 175.68-208.192 38.144-60.224 57.664-112.768 57.664-154.24 0-8.704-0.32-16.64-1.152-27.648-2.432-92.544-95.616-170.88-214.016-170.88-66.688 0-127.68 25.152-168 66.816l-45.952 47.424-46.016-47.424c-40.32-41.6-101.312-66.752-168-66.752-116.992 0-209.664 76.544-213.888 167.872l-0.192 2.944a300.928 300.928 0 0 0-1.152 27.52c0 42.24 18.688 95.04 55.168 155.52 39.104 64.896 96.512 135.296 167.296 208.128a2342.08 2342.08 0 0 0 195.712 178.816c11.84-9.216 24.448-19.2 37.696-29.888z" p-id="8550"></path></svg>