<?xml version="1.0" standalone="no"?><!DOCTYPE svg PUBLIC "-//W3C//DTD SVG 1.1//EN" "http://www.w3.org/Graphics/SVG/1.1/DTD/svg11.dtd"><svg t="1573549916016" class="icon" viewBox="0 0 1024 1024" version="1.1" xmlns="http://www.w3.org/2000/svg" p-id="8209" xmlns:xlink="http://www.w3.org/1999/xlink" width="200" height="200"><defs><style type="text/css"></style></defs><path d="M62.5 871.053c1.483-9.015 2.446-18.148 4.549-27.016 5.807-24.474 19.169-44.267 37.772-61.077 79.518-71.88 158.82-143.995 238.202-216.023 36.084-32.739 72.179-65.468 108.256-98.213 2.789-2.529 5.494-5.152 9.242-8.677-7.131-7.392-13.841-14.663-20.887-21.591-14.912-14.658-24.605-32.095-28.497-52.648-3.452-18.235-0.188-35.914 4.103-53.677 15.397-63.756 29.915-127.729 45.748-191.375 8.724-35.071 31.279-58.325 66.567-67.447C593.67 56.22 659.919 39.644 726.202 23.225c27.137-6.721 52.815-1.532 74.086 16.212 19.841 16.553 37.522 35.697 56.541 54.074-3.853 4.135-5.986 6.507-8.205 8.796-52.009 53.636-104.006 107.282-156.058 160.877-13.193 13.583-18.246 29.16-11.75 47.456 10.597 29.841 46.859 38.367 69.086 15.896 29.884-30.216 59.268-60.925 88.857-91.43 25.247-26.025 50.482-52.063 76.161-78.548 10.155 10.134 20.076 19.979 29.925 29.889 5.344 5.377 10.5 10.937 15.855 16.298 27.385 27.401 35.967 59.932 27.016 97.454-15.66 65.636-30.973 131.354-46.82 196.943-9.104 37.676-32.192 62.284-70.239 71.906-64.371 16.278-128.729 32.623-193.171 48.627-33.379 8.291-62.555-0.061-87.223-23.986-5.037-4.885-9.775-10.076-15.218-15.709-2.615 2.818-4.849 5.057-6.894 7.455C466.107 705.076 363.949 824.625 262.136 944.47c-22.03 25.932-48.948 41.819-83.081 42.937-54.137 1.767-102.221-37.398-112.908-90.862-1.471-7.364-2.443-14.826-3.647-22.243C62.5 873.217 62.5 872.133 62.5 871.053zM802.704 92.967c-6.986-5.992-13.378-11.03-19.259-16.604-14.256-13.512-30.971-18.832-49.981-14.098-65.216 16.237-130.325 32.896-195.477 49.39-21.79 5.517-35.164 19.603-40.316 41.109-16.033 66.935-31.781 133.938-47.524 200.94-4.886 20.783-0.066 39.062 14.955 54.482 11.146 11.439 22.222 22.945 33.338 34.412 13.611 14.041 13.285 24.373-1.34 37.688-19.013 17.313-38.088 34.558-57.129 51.839-103.824 94.229-207.628 188.482-311.483 282.68-22.979 20.842-30.742 46.573-23.856 76.396 8.754 37.913 47.272 62.396 85.214 54.868 19.998-3.972 33.749-16.824 46.503-31.817C342.972 788.914 449.82 663.764 556.624 538.578c11.163-13.086 21.584-13.464 33.541-1.31 9.11 9.261 17.962 18.786 27.233 27.885 13.996 13.736 30.77 18.76 49.891 13.982 64.683-16.146 129.291-32.587 193.97-48.742 22.364-5.588 36.384-19.304 41.728-41.636 16.076-67.198 32.109-134.409 47.861-201.686 1.506-6.439 1.68-13.433 1.155-20.063-1.938-24.629-21.059-37.673-38.225-55.984-2.063 3.41-3.188 6.375-5.214 8.47-43.838 45.344-87.635 90.73-131.748 135.804-24.767 25.307-61.102 31.173-91.814 15.609-50.146-25.414-60.973-92.883-21.146-134.438 43.265-45.142 86.992-89.838 130.518-134.732C796.415 99.631 798.417 97.484 802.704 92.967z" p-id="8210"></path></svg>