<?xml version="1.0" standalone="no"?><!DOCTYPE svg PUBLIC "-//W3C//DTD SVG 1.1//EN" "http://www.w3.org/Graphics/SVG/1.1/DTD/svg11.dtd"><svg t="1573549806243" class="icon" viewBox="0 0 1640 1024" version="1.1" xmlns="http://www.w3.org/2000/svg" p-id="5963" xmlns:xlink="http://www.w3.org/1999/xlink" width="320.3125" height="200"><defs><style type="text/css"></style></defs><path d="M893.221289 835.226891c-143.865546 184.560224-391.887955 206.162465-524.817928 166.812325A513.882353 513.882353 0 0 1 21.422969 363.742297C99.226891 99.67507 377.72549-52.616246 656.22409 16.761905c217.546218 53.781513 350.47619 221.759104 406.319327 512.896358l0.896359 2.59944c0.806723 3.316527 56.64986 364.817927 263.170868 364.817927a187.159664 187.159664 0 0 0 0-374.229692 212.885154 212.885154 0 0 0-126.924369 39.887956l-73.680673-183.753502c98.59944 8.963585 141.355742 12.728291 200.605042 16.941177 178.644258 14.431373 313.72549 140.54902 313.72549 313.72549a313.72549 313.72549 0 0 1-313.72549 313.72549c-309.781513 0-383.462185-437.602241-388.481792-471.484594C878.431373 237.714286 730.711485 166.543417 625.747899 140.280112c-212.436975-53.781513-424.87395 60.952381-483.316526 260.7507a387.406162 387.406162 0 0 0 261.557423 480.806723c116.526611 34.689076 352.089636 4.212885 445.221288-219.2493" p-id="5964" fill="#ffffff"></path></svg>