<?xml version="1.0" standalone="no"?><!DOCTYPE svg PUBLIC "-//W3C//DTD SVG 1.1//EN" "http://www.w3.org/Graphics/SVG/1.1/DTD/svg11.dtd"><svg t="1575278435589" class="icon" viewBox="0 0 1024 1024" version="1.1" xmlns="http://www.w3.org/2000/svg" p-id="7456" xmlns:xlink="http://www.w3.org/1999/xlink" width="200" height="200"><defs><style type="text/css"></style></defs><path d="M128 832m32 0l704 0q32 0 32 32l0 0q0 32-32 32l-704 0q-32 0-32-32l0 0q0-32 32-32Z" fill="#ffffff" p-id="7457"></path><path d="M192 192m0 32l0 640q0 32-32 32l0 0q-32 0-32-32l0-640q0-32 32-32l0 0q32 0 32 32Z" fill="#ffffff" p-id="7458"></path><path d="M802.304 320a32 32 0 1 1 64 0v128a32 32 0 1 1-64 0V320z" fill="#ffffff" p-id="7459"></path><path d="M832 352a32 32 0 0 0 0-64h-128a32 32 0 0 0 0 64h128z" fill="#ffffff" p-id="7460"></path><path d="M278.528 726.72a32 32 0 0 1-45.056-45.44l258.304-256a32 32 0 0 1 51.136 8.384l44.032 88.128 222.336-224.32a32 32 0 0 1 45.44 45.056l-253.696 256a32 32 0 0 1-51.328-8.192L505.408 501.76l-226.88 224.896z" fill="#ffffff" p-id="7461"></path></svg>