<?xml version="1.0" standalone="no"?><!DOCTYPE svg PUBLIC "-//W3C//DTD SVG 1.1//EN" "http://www.w3.org/Graphics/SVG/1.1/DTD/svg11.dtd"><svg t="1575278142350" class="icon" viewBox="0 0 1192 1024" version="1.1" xmlns="http://www.w3.org/2000/svg" p-id="4630" xmlns:xlink="http://www.w3.org/1999/xlink" width="232.8125" height="200"><defs><style type="text/css"></style></defs><path d="M1068.962909 355.141818h99.160436c13.665745 0 24.687709 11.021964 24.68771 24.687709 0 13.665745-11.021964 24.687709-24.68771 24.687709h-99.160436v-49.375418zM1068.962909 504.124509h99.160436c13.665745 0 24.687709 11.021964 24.68771 24.687709s-11.021964 24.687709-24.68771 24.687709h-99.160436v-49.375418zM1068.962909 653.125818h99.160436c13.665745 0 24.687709 11.021964 24.68771 24.687709 0 13.647127-11.021964 24.669091-24.68771 24.669091h-99.160436V653.125818zM1068.962909 802.108509h99.160436c13.665745 0 24.687709 11.021964 24.68771 24.687709s-11.021964 24.687709-24.68771 24.687709h-99.160436v-49.375418zM26.456436 355.141818h99.179055v49.803637H26.456436a24.650473 24.650473 0 0 1-24.687709-24.68771c-0.428218-14.093964 10.593745-25.115927 24.687709-25.115927zM26.456436 504.124509h99.179055v49.822255H26.456436a24.650473 24.650473 0 0 1-24.687709-24.687709c0.018618-13.665745 10.593745-25.134545 24.687709-25.134546zM26.456436 653.125818h99.179055v49.3568H26.456436a24.650473 24.650473 0 0 1-24.687709-24.669091c-0.428218-13.665745 10.593745-24.687709 24.687709-24.687709zM26.456436 802.108509h99.179055v49.822255H26.456436a24.650473 24.650473 0 0 1-24.687709-24.687709c-0.428218-14.112582 10.593745-25.134545 24.687709-25.134546zM1015.6032 281.525527a99.328 99.328 0 0 0-99.160436-99.179054H272.849455a99.328 99.328 0 0 0-99.179055 99.179054v643.127855a99.328 99.328 0 0 0 99.179055 99.179054h643.146472a99.328 99.328 0 0 0 99.160437-99.179054V281.525527h0.446836z m-96.069818 698.647273H274.189964c-29.975273 0-52.0192-24.240873-52.0192-54.216145V574.650182h350.0032c4.840727 0 9.253236-0.893673 13.218909-3.518837l158.254545-115.041745c9.700073 4.412509 20.293818 7.484509 31.744 7.484509 40.978618 0 74.472727-33.047273 74.472727-74.491345a74.658909 74.658909 0 0 0-74.472727-74.491346 74.677527 74.677527 0 0 0-74.509963 74.491346c0 13.218909 3.518836 25.134545 9.271854 35.691054l-145.482473 105.788509H222.170764V280.650473c0-29.975273 22.043927-54.216145 52.0192-54.216146h645.343418c29.956655 0 52.000582 24.240873 52.000582 54.216146v351.325091H621.530764c-4.840727 0-9.700073 0.875055-13.218909 3.518836l-158.254546 115.488582c-9.700073-4.393891-20.2752-7.484509-31.744-7.484509a74.398255 74.398255 0 0 0-74.491345 74.472727c0 41.015855 33.512727 74.509964 74.491345 74.509964a74.696145 74.696145 0 0 0 74.509964-74.509964 73.914182 73.914182 0 0 0-9.271855-35.691055l145.463855-105.807127h342.500072v249.949091c0.018618 29.528436-22.025309 53.750691-51.981963 53.750691z" fill="#ffffff" p-id="4631"></path><path d="M796.746473 144.1792V44.981527c0-13.647127 11.021964-24.687709 24.687709-24.687709 14.112582-0.428218 25.134545 10.575127 25.134545 24.687709v99.197673M647.763782 144.1792V44.981527c0-13.647127 11.021964-24.687709 24.687709-24.687709 13.628509 0 25.134545 10.575127 25.134545 24.687709v99.197673M499.209309 144.1792V44.981527c0-13.647127 11.021964-24.687709 24.669091-24.687709 13.665745-0.428218 24.687709 10.575127 24.687709 24.687709v99.197673M349.779782 144.1792V44.981527c0-13.647127 11.021964-24.687709 24.687709-24.687709 14.112582-0.428218 25.134545 10.575127 25.134545 24.687709v99.197673" fill="#ffffff" p-id="4632"></path></svg>