<?xml version="1.0" standalone="no"?><!DOCTYPE svg PUBLIC "-//W3C//DTD SVG 1.1//EN" "http://www.w3.org/Graphics/SVG/1.1/DTD/svg11.dtd"><svg t="1575277920787" class="icon" viewBox="0 0 1024 1024" version="1.1" xmlns="http://www.w3.org/2000/svg" p-id="3294" xmlns:xlink="http://www.w3.org/1999/xlink" width="200" height="200"><defs><style type="text/css"></style></defs><path d="M954.88 258.048c-15.872 16.384-41.472 36.352-78.848 67.584-39.424 36.352-93.184 33.792-129.024-5.632-36.352-39.424-33.792-92.672 5.632-129.024 36.352-33.28 75.776-72.704 74.752-73.216-99.328-50.688-223.744-37.888-310.784 41.472-79.36 73.216-105.472 181.76-77.312 278.528l-335.36 307.712c-49.664 45.568-52.736 122.368-7.168 172.032 45.568 49.664 122.88 52.736 172.032 7.168l335.36-307.712c94.208 35.84 204.8 18.944 283.648-53.76 87.04-79.872 109.568-202.24 67.072-305.152z" p-id="3295"></path></svg>