<?xml version="1.0" standalone="no"?><!DOCTYPE svg PUBLIC "-//W3C//DTD SVG 1.1//EN" "http://www.w3.org/Graphics/SVG/1.1/DTD/svg11.dtd"><svg t="1575278333784" class="icon" viewBox="0 0 1024 1024" version="1.1" xmlns="http://www.w3.org/2000/svg" p-id="6217" xmlns:xlink="http://www.w3.org/1999/xlink" width="200" height="200"><defs><style type="text/css"></style></defs><path d="M768 512a307.0464 307.0464 0 0 0-262.8096 148.0704C474.7264 663.6544 442.7264 665.6 409.6 665.6c-197.9392 0-358.4-68.7616-358.4-153.6V358.4c0 84.8384 160.4608 153.6 358.4 153.6s358.4-68.7616 358.4-153.6v153.6z m-290.6624 406.8864C455.3728 920.6784 432.7936 921.6 409.6 921.6c-197.9392 0-358.4-68.7616-358.4-153.6v-153.6c0 84.8384 160.4608 153.6 358.4 153.6 18.944 0 37.5808-0.6144 55.808-1.8432a309.1456 309.1456 0 0 0 11.9296 152.7296zM768 256c0 84.8384-160.4608 153.6-358.4 153.6S51.2 340.8384 51.2 256V153.6c0-84.8384 160.4608-153.6 358.4-153.6s358.4 68.7616 358.4 153.6v102.4z m50.7392 407.3984c8.192 2.6112 16.0256 5.888 23.552 9.728l41.5744-27.6992 57.9072 57.9072-27.6992 41.5744c3.84 7.5264 7.1168 15.36 9.728 23.552L972.8 778.24v81.92l-48.9984 9.7792a162.816 162.816 0 0 1-9.728 23.552l27.6992 41.5744-57.9072 57.9072-41.5744-27.6992a162.816 162.816 0 0 1-23.552 9.728L808.96 1024h-81.92l-9.7792-48.9984a162.816 162.816 0 0 1-23.552-9.728l-41.5744 27.6992-57.9072-57.9072 27.6992-41.5744a162.816 162.816 0 0 1-9.728-23.552L563.2 860.16v-81.92l48.9984-9.7792a162.816 162.816 0 0 1 9.728-23.552l-27.6992-41.5744 57.9072-57.9072 41.5744 27.6992c7.5264-3.84 15.36-7.1168 23.552-9.728L727.04 614.4h81.92l9.7792 48.9984zM768 870.4a51.2 51.2 0 1 0 0-102.4 51.2 51.2 0 0 0 0 102.4z" p-id="6218"></path></svg>