<?xml version="1.0" standalone="no"?><!DOCTYPE svg PUBLIC "-//W3C//DTD SVG 1.1//EN" "http://www.w3.org/Graphics/SVG/1.1/DTD/svg11.dtd"><svg t="1575278034917" class="icon" viewBox="0 0 1024 1024" version="1.1" xmlns="http://www.w3.org/2000/svg" p-id="4218" xmlns:xlink="http://www.w3.org/1999/xlink" width="200" height="200"><defs><style type="text/css"></style></defs><path d="M848.996 119.536H174.292c-35.303 0-54.916 43.15-54.916 78.453V680.48c0 39.227 19.613 66.687 54.916 66.687h258.899v78.452h-74.529c-7.847 0-3.923 15.695-3.923 23.537v47.073c0 11.766-3.923 7.847 3.923 7.847h302.045c7.847 0 3.923 3.919 3.923-3.923V853.08c0-7.847 3.923-23.537-3.923-23.537h-70.605v-78.452h258.895c39.227 0 54.92-27.461 54.92-66.686V197.989c0-35.303-19.613-78.453-54.921-78.453z m-74.53 325.587c-70.61 90.218-160.833 145.139-262.823 145.139S319.43 535.34 248.825 445.123c-3.923-7.848-3.923-19.618 0-23.537 70.605-90.224 160.829-149.063 262.818-149.063s192.213 54.916 262.823 145.139c3.924 7.842 3.924 19.613 0 27.461z m0 0" p-id="4219"></path><path d="M503.802 299.979c-70.611 3.923-125.527 58.844-129.45 129.449-3.923 82.377 62.763 152.986 145.139 145.139 66.687-3.919 125.527-58.839 129.45-129.444 3.923-82.382-62.763-149.063-145.139-145.144z m11.765 196.136c-35.303 3.924-62.763-27.461-62.763-62.764 0-27.46 23.536-50.997 54.92-54.916 35.303-3.923 62.763 27.456 62.763 62.764-3.923 27.455-27.459 50.993-54.92 54.916z m0 0" p-id="4220"></path></svg>