<?xml version="1.0" standalone="no"?><!DOCTYPE svg PUBLIC "-//W3C//DTD SVG 1.1//EN" "http://www.w3.org/Graphics/SVG/1.1/DTD/svg11.dtd"><svg t="1575278804947" class="icon" viewBox="0 0 1000 1000" version="1.1" xmlns="http://www.w3.org/2000/svg" p-id="10431" xmlns:xlink="http://www.w3.org/1999/xlink" width="200" height="200"><defs><style type="text/css"></style></defs><path d="M418.0377 506.4956c-69.1569 0-125.4201-56.2609-125.4201-125.415s56.2632-125.415 125.4201-125.415 125.4201 56.2609 125.4201 125.415S487.1947 506.4956 418.0377 506.4956zM418.0377 295.6386c-47.115 0-85.4456 38.329-85.4456 85.4421s38.3306 85.4421 85.4456 85.4421 85.4456-38.329 85.4456-85.4421S465.1527 295.6386 418.0377 295.6386zM420.3992 719.3513c-29.2554 0-50.8436-9.6395-64.1641-28.6526-10.953-15.6344-14.142-34.3527-16.9552-50.8675-1.1113-6.5276-2.1816-12.8083-3.6107-18.1227-6.9875-2.5113-17.9955-6.0019-24.8302-7.8647-4.766 3.1748-9.8977 7.1961-15.2413 11.3843-18.2484 14.3003-38.9332 30.5083-65.5842 30.5083-19.4076 0.001-38.2756-9.0259-56.0803-26.8308-21.8061-21.8052-30.5445-44.6587-25.9725-67.9259 3.7926-19.2989 15.9618-35.1082 26.698-49.0567 5.2736-6.8504 10.3234-13.4109 13.7313-19.4878-2.3255-6.5675-6.4219-17.0924-9.392-24.0307-4.4452-0.7125-9.421-1.2172-14.5717-1.7378-17.3729-1.7588-37.0634-3.7525-53.7528-15.0598-19.8334-13.4389-29.89-36.7061-29.89-69.1571 0-33.0206 10.3874-56.7925 30.8723-70.6561 17.1281-11.5911 37.2343-13.8116 54.973-15.7723 3.3838-0.3737 6.6787-0.7375 9.7848-1.1532 2.6033-7.329 5.9482-17.8939 7.846-24.8222-1.8208-2.2495-3.7646-4.5759-5.7633-6.9683-12.1643-14.5611-25.9525-31.0649-30.8803-51.9298-6.0322-25.5397 3.0341-50.6137 26.9468-74.5255 19.1278-19.127 39.0701-28.8255 59.2712-28.8255 27.8972 0 49.4365 18.0038 66.7445 32.47 3.8635 3.2288 7.6062 6.3567 11.1309 9.0489 6.7507-3.1269 15.8199-7.5049 21.915-10.6128 0.5077-3.3937 0.9494-7.0272 1.4041-10.7707 2.1356-17.5871 4.5571-37.5196 15.9918-54.4391 13.7612-20.3602 37.1024-30.6832 69.3788-30.6832 32.1036 0 55.2938 10.264 68.9251 30.5083 11.3298 16.8246 13.6793 36.6571 15.751 54.1553 0.4447 3.7565 0.8774 7.405 1.3791 10.8147 7.1185 3.1099 17.6058 7.4489 24.8212 10.2311 3.4358-2.5832 7.0505-5.5263 10.7841-8.5662 17.1701-13.9785 38.5385-31.3757 65.6912-31.3757 19.7564 0 39.1531 9.3796 57.6523 27.8771 22.9264 22.9255 31.6009 47.2769 25.7826 72.3779-4.722 20.3642-17.9176 36.837-29.5602 51.3712-2.6923 3.3607-5.3006 6.6175-7.6391 9.7234 2.3395 7.381 6.1181 18.5085 8.8574 26.0953 4.0764 0.7915 8.5436 1.441 13.1556 2.1126 16.5804 2.4154 35.3725 5.1515 51.1584 16.3379 18.852 13.3599 28.4119 35.5579 28.4119 65.9773 0 30.2355-9.7298 52.6353-28.9196 66.5799-15.9199 11.5682-34.8348 15.0038-51.5242 18.0358-4.664 0.8474-9.1692 1.6659-13.2396 2.6052-3.12 6.5396-7.6941 16.8166-10.6152 23.7509 2.5724 4.1392 5.7493 8.5882 9.0412 13.1991 10.0186 14.0355 21.3744 29.9427 24.8792 49.3046 4.2703 23.598-4.3612 46.3596-25.6557 67.6511-17.4509 17.4512-35.9071 26.3002-54.8541 26.3012-24.2056 0.001-43.883-14.3113-59.694-25.8115-4.5141-3.2818-8.8624-6.4446-12.9438-9.0389-7.4133 2.4493-19.3747 6.8204-26.8029 9.7914-1.3681 5.2195-2.4085 11.2634-3.4908 17.5451-2.8362 16.4658-6.0511 35.1282-17.0821 50.6656C471.3278 709.8227 449.7045 719.3513 420.3992 719.3513zM307.5121 572.7607c2.3085 0 7.1105 0 29.865 7.332 21.4893 6.9233 28.7687 9.9273 32.7122 19.0271 4.6231 10.6638 6.6438 22.5267 8.5985 33.9979 5.4645 32.0793 9.2481 46.2606 41.7124 46.2606 32.7631 0 36.3468-13.22 41.9583-45.7989 1.8928-10.9876 3.8495-22.3488 8.1128-32.7488 3.6956-9.0159 9.9427-11.6311 33.2418-20.2013 24.4794-9.0049 27.9062-9.0049 30.9293-9.0049 3.2319 0 6.312 0.7195 9.1562 2.1376 8.7065 4.3451 16.8403 10.26 24.7053 15.9802 12.8438 9.3417 24.9751 18.1647 36.179 18.1647 8.0729-0.001 16.7703-4.7738 26.5891-14.5941 24.2116-24.2096 16.4255-37.5645-3.4928-65.4666-6.0312-8.4493-12.2682-17.1863-16.5555-26.492-4.0234-8.7341-1.4871-14.6121 5.2906-30.3214 2.8442-6.5915 6.0821-13.7767 8.6615-19.219 5.0638-10.6838 8.1198-17.1324 16.9032-20.0854 8.3077-2.7941 17.254-4.419 25.9045-5.9909 33.017-5.9979 47.6147-10.1311 47.6147-45.2863 0-36.1545-15.1583-38.362-45.3581-42.76-9.413-1.3711-19.1478-2.7891-28.295-5.7791-9.2021-3.01-12.2032-10.6118-13.9961-15.1527-0.8954-2.2695-2.0317-5.3244-3.3778-9.0808-2.5464-7.1082-5.5255-15.8572-7.775-22.8335-4.5091-13.9815-6.7717-20.9998-1.3661-29.494 4.3752-6.8763 9.7748-13.6178 14.9984-20.1373 23.1912-28.9494 33.1649-44.0391 6.7107-70.4932-10.8821-10.8806-20.4939-16.17-29.3863-16.17-12.9368 0-26.9248 11.3883-40.4522 22.4018-7.2054 5.866-14.6567 11.9319-22.4077 16.6637-3.168 1.9337-6.8247 2.956-10.5733 2.956-3.6687 0-6.318 0-31.5429-10.4279-5.8413-2.4154-11.3408-4.7718-15.4851-6.6365-8.0179-3.6076-15.5911-7.0142-18.0215-16.9335-1.9338-7.8887-2.9281-16.281-3.8895-24.3985-4.0564-34.2498-7.4323-49.3925-44.9793-49.3925-38.0178 0-41.4796 15.3186-45.6869 49.9671-0.9354 7.6988-1.9018 15.6604-3.6637 23.1653-2.4514 10.4379-9.1452 13.6667-31.325 24.3625-24.2076 11.6741-25.8395 11.6941-30.2058 11.6691-3.5138-0.002-7.0065-0.9384-10.0476-2.6992-8.5296-4.9387-16.6624-11.737-24.5284-18.3106-13.6263-11.3893-27.7173-23.1673-41.1078-23.1673-9.2141 0-19.6465 5.7591-31.0052 17.1174-28.315 28.3138-17.9116 43.5275 6.345 72.5628 4.2523 5.0905 8.6495 10.354 12.483 15.6484 6.5828 9.0938 3.8236 18.5234-0.3538 32.7968-2.4894 8.5072-5.7913 18.5384-8.4126 25.5547-3.168 8.4803-6.7587 18.0927-18.0115 20.719-7.7151 1.7998-15.9229 2.7062-23.8598 3.5836-32.4084 3.5806-50.26 5.5522-50.26 46.6963 0 39.6191 15.9398 41.232 47.6946 44.4469 9.8907 1.0013 20.1192 2.0376 29.6451 4.8547 8.9343 2.6442 12.509 9.9443 14.4288 13.8656 3.0441 6.2168 7.3363 16.8746 10.3394 24.7762 6.5758 17.3043 8.5086 23.1563 5.4116 31.0809-5.0258 12.8573-13.6243 24.0287-21.941 34.8314-21.1845 27.5213-28.7987 39.6731-4.1364 64.3354 10.1775 10.1771 19.2747 15.1237 27.8143 15.1227 12.8548 0 27.1267-11.1834 40.9279-21.9991 8.5226-6.6795 17.336-13.5848 26.643-18.5644C300.6105 573.5811 303.9504 572.7607 307.5121 572.7607zM799.2689 824.1063c-29.3743 0-53.2711-23.8958-53.2711-53.2689s23.8968-53.2689 53.2711-53.2689 53.2711 23.8958 53.2711 53.2689S828.6422 824.1063 799.2689 824.1063zM799.2689 737.5559c-18.3523 0-33.2838 14.9299-33.2838 33.2824s14.9305 33.2824 33.2838 33.2824 33.2838-14.9299 33.2838-33.2824S817.6212 737.5559 799.2689 737.5559zM800.2382 911.477c-12.627 0-21.981-4.2141-27.8023-12.5235-4.727-6.7464-6.0721-14.6411-7.2584-21.6064-0.3878-2.2715-0.7625-4.47-1.2182-6.3737-2.5194-0.8784-5.9122-1.9527-8.3687-2.6482-1.7149 1.1892-3.5617 2.6372-5.4755 4.1372-7.3363 5.7491-16.4675 12.9033-28.0241 12.9033-8.4576 0-16.6284-3.8814-24.2845-11.5372-21.8281-21.8282-8.0729-39.6971 0.1449-50.3728 1.9218-2.4973 3.7696-4.8967 5.0908-7.0912-0.8525-2.3534-2.1097-5.5852-3.144-8.0605-1.523-0.2119-3.191-0.3807-4.9079-0.5556-12.56-1.2701-35.9411-3.6385-35.9411-36.3474 0-33.1855 23.9577-35.8327 36.8295-37.2547 0.9894-0.1089 1.9598-0.2169 2.8932-0.3298 0.8774-2.5423 1.8828-5.7231 2.5704-8.1385-0.5676-0.6905-1.1613-1.4011-1.7679-2.1266-8.8813-10.6308-25.4128-30.4174-1.507-54.3192 8.1988-8.1984 16.8103-12.3556 25.5937-12.3556 12.0993 0 21.2175 7.6208 28.5448 13.7447 1.2602 1.0523 2.4874 2.0786 3.6537 3.001 2.2915-1.0733 5.0158-2.3894 7.1235-3.4477 0.1519-1.1043 0.2938-2.2685 0.4377-3.4587 1.55-12.7623 4.4342-36.5152 36.8185-36.5152 32.2315 0 35.0307 23.634 36.5347 36.3304 0.1389 1.1732 0.2748 2.3184 0.4217 3.4107 2.5234 1.0853 5.7533 2.4134 8.2737 3.4027 1.1463-0.8884 2.3475-1.8647 3.5787-2.8681 7.2674-5.917 16.3116-13.281 28.0941-13.281 8.6005 0 16.9882 4.0263 24.9291 11.9669 22.8644 22.8655 7.0675 42.5841-1.4181 53.1789-0.8854 1.1043-1.7479 2.1815-2.5444 3.2158 0.8495 2.6292 2.0257 6.0959 2.9851 8.796 1.3601 0.2388 2.8202 0.4517 4.3192 0.6695 11.9494 1.7408 34.1922 4.9806 34.1922 35.5589 0 30.2265-22.4347 34.3027-34.488 36.4933-1.576 0.2858-3.106 0.5636-4.5161 0.8664-1.1053 2.3544-2.5284 5.5472-3.5837 8.0196 0.9324 1.436 2.0257 2.969 3.155 4.5499 4.2213 5.914 9.0063 12.6174 10.5143 20.9598 1.8638 10.298-1.8458 20.1733-11.025 29.3521-7.5122 7.5109-15.5121 11.3193-23.7819 11.3193-10.5173 0.001-18.855-6.0629-25.5547-10.9356-1.566-1.1402-3.084-2.2425-4.5101-3.1858-2.7133 0.9214-6.5079 2.3074-9.2391 3.3747-0.4397 1.8667-0.8055 3.9863-1.1832 6.1778-1.1962 6.9473-2.5534 14.82-7.3153 21.5294C822.2472 907.3118 812.8802 911.477 800.2382 911.477zM753.9008 847.7272c1.1183 0 3.2 0 12.8068 3.0959 8.6295 2.7801 12.528 4.2032 14.5208 8.803 1.9827 4.5739 2.8312 9.5525 3.6507 14.3653 2.2646 13.295 3.5447 17.5001 15.3572 17.5001 11.9084 0 13.1936-4.1602 15.4592-17.3133 0.7935-4.6049 1.614-9.3666 3.4378-13.8176 1.8808-4.5829 5.3656-5.865 14.6826-9.2927 10.3474-3.8064 11.8544-3.8064 13.3125-3.8064 1.55 0 3.174 0.3747 4.5601 1.0673 3.7036 1.8487 7.1035 4.3201 10.3904 6.7114 4.8089 3.4976 9.7808 7.1142 13.7972 7.1132 2.7762 0 6.0232-1.8388 9.6499-5.4663 8.8354-8.834 6.4809-13.211-1.625-24.5663-2.5234-3.5366-5.1337-7.1921-6.9646-11.1654-1.9877-4.3001-0.6946-7.2971 2.1366-13.8636 5.4146-12.5565 6.8726-15.5814 11.5926-17.1634 3.5238-1.1862 7.2614-1.8637 10.8761-2.5203 13.4294-2.4403 18.0735-3.9403 18.0735-16.8286 0-13.292-4.652-13.9695-17.0861-15.7803-3.9385-0.5736-8.0129-1.1672-11.9134-2.4423-4.8779-1.5959-6.0861-4.9716-8.2797-11.1005-1.0503-2.934-2.2756-6.5346-3.198-9.3986-1.8888-5.859-3.0281-9.3956-0.3548-13.5918 1.8448-2.9 4.0934-5.7071 6.267-8.4213 9.7268-12.1438 12.596-16.8386 2.8842-26.55-4.0564-4.0562-7.6881-6.1129-10.7961-6.1129-4.675 0-10.1645 4.471-15.4731 8.793-3.0041 2.4463-6.1101 4.9756-9.396 6.9803-1.567 0.9574-3.4348 1.476-5.2716 1.476-1.7759 0-2.9491 0-13.6323-4.416-10.3714-4.2881-13.5024-5.5822-14.8066-10.8986-0.8205-3.3487-1.2352-6.8494-1.637-10.2341-1.6829-14.2024-2.8732-18.6953-16.6854-18.6953-13.9671 0-15.2683 4.8657-16.9762 18.9372-0.3898 3.2078-0.7925 6.5246-1.538 9.7014-1.1982 5.1155-4.3802 6.6495-13.8232 11.2024-10.1016 4.8717-10.998 4.9676-13.0537 4.9676-1.7819 0.005-3.5887-0.4467-5.1437-1.3501-3.6327-2.1026-7.0305-4.9426-10.3164-7.6898-5.3496-4.471-10.8801-9.0928-15.726-9.0928-3.2899 0-7.1464 2.1865-11.4617 6.5026-10.5613 10.5588-7.0285 15.7123 2.7133 27.3724 1.7649 2.1126 3.5897 4.2971 5.1987 6.5196 3.218 4.454 1.8458 9.1368 0.1079 15.0638-1.0433 3.5606-2.4225 7.7408-3.5118 10.6488-1.3052 3.4796-3.091 8.2474-8.6405 9.5365-3.2619 0.7615-6.6847 1.1402-9.9956 1.505-13.0707 1.444-19.0369 2.1036-19.0369 17.3892 0 14.6441 4.8929 15.1387 17.9676 16.4638 4.1424 0.4187 8.4256 0.8534 12.496 2.0576 4.4242 1.3131 6.1801 4.8987 7.0225 6.6225 1.2762 2.6062 3.062 7.0402 4.3093 10.321 2.6063 6.8584 3.7956 9.9882 2.2176 14.0355-2.1576 5.5223-5.7673 10.2111-9.2571 14.745-8.7444 11.3603-10.8641 15.0368-1.8508 24.0497 3.7706 3.7714 7.1864 5.6841 10.1505 5.6841 4.659 0 10.2695-4.396 15.695-8.6481 3.5597-2.7881 7.2394-5.6722 11.1969-7.7897C750.4849 848.136 752.1419 847.7272 753.9008 847.7272z" fill="#ffffff" p-id="10432"></path></svg>