<?xml version="1.0" standalone="no"?><!DOCTYPE svg PUBLIC "-//W3C//DTD SVG 1.1//EN" "http://www.w3.org/Graphics/SVG/1.1/DTD/svg11.dtd"><svg t="1575278569552" class="icon" viewBox="0 0 1024 1024" version="1.1" xmlns="http://www.w3.org/2000/svg" p-id="8900" xmlns:xlink="http://www.w3.org/1999/xlink" width="200" height="200"><defs><style type="text/css"></style></defs><path d="M505.321669 1022.026765c-67.86173 0-133.709872-13.293107-195.706373-39.521193-59.873962-25.323182-113.642597-61.569773-159.807821-107.733989-46.164216-46.170268-82.414842-99.937895-107.738024-159.806813C15.8454 652.962217 2.547249 587.119119 2.547249 519.252345c0-67.862739 13.298151-133.709872 39.521193-195.707382 25.323182-59.873962 61.573809-113.642597 107.738024-159.806813C195.972699 117.567882 249.741334 81.321291 309.615296 55.998108 371.611797 29.775067 437.460948 16.477924 505.321669 16.477924c67.866774 0 133.709872 13.297142 195.713435 39.520184C760.902003 81.321291 814.671648 117.572926 860.841916 163.73815c46.164216 46.164216 82.414842 99.932851 107.738024 159.806813 26.223042 61.997509 39.521193 127.844643 39.521193 195.707382 0 67.866774-13.298151 133.709872-39.521193 195.712426-25.323182 59.868918-61.573809 113.636544-107.738024 159.806813-46.170268 46.164216-99.939913 82.410807-159.806813 107.733989C639.031541 1008.733658 573.188443 1022.026765 505.321669 1022.026765L505.321669 1022.026765zM505.321669 62.466607c-61.673681 0-121.493167 12.073454-177.795936 35.888463-54.387037 23.002916-103.239735 55.940606-145.196198 97.89707-41.962516 41.962516-74.900206 90.815214-97.903123 145.20326-23.815009 56.30277-35.889472 116.122255-35.889472 177.795936 0 61.678725 12.075472 121.497202 35.889472 177.794928 23.002916 54.394098 55.940606 103.246796 97.903123 145.20326 41.956463 41.956463 90.809161 74.894154 145.196198 97.903123 56.30277 23.808956 116.122255 35.884428 177.795936 35.884428s121.498211-12.075472 177.795936-35.884428c54.39309-23.008969 103.245787-55.946659 145.202251-97.903123 41.956463-41.956463 74.900206-90.809161 97.903123-145.20326 23.815009-56.297725 35.889472-116.115194 35.889472-177.794928 0-61.673681-12.075472-121.493167-35.889472-177.795936-23.00796-54.389054-55.946659-103.241752-97.903123-145.198216-41.956463-41.962516-90.809161-74.900206-145.202251-97.903123C626.814836 74.540061 566.99535 62.466607 505.321669 62.466607L505.321669 62.466607zM533.041787 785.267824 533.041787 345.36757l211.369178 211.721253 31.506187-31.478949L505.316625 254.595735 234.714081 525.609874l31.506187 31.478949 211.91898-212.274081 0 440.453082L533.041787 785.267824zM533.041787 785.267824" p-id="8901" fill="#ffffff"></path></svg>