<?xml version="1.0" standalone="no"?><!DOCTYPE svg PUBLIC "-//W3C//DTD SVG 1.1//EN" "http://www.w3.org/Graphics/SVG/1.1/DTD/svg11.dtd"><svg t="1576058433442" class="icon" viewBox="0 0 1144 1024" version="1.1" xmlns="http://www.w3.org/2000/svg" p-id="1853" width="71.5" height="64" xmlns:xlink="http://www.w3.org/1999/xlink"><defs><style type="text/css"></style></defs><path d="M965.933176 572.235294H527.058824a45.176471 45.176471 0 1 1 0-90.352941h433.091764l-84.931764-84.871529a45.176471 45.176471 0 1 1 63.909647-63.849412l149.082353 149.022117a45.176471 45.176471 0 0 1 10.36047 47.766589 45.176471 45.176471 0 0 1-10.36047 47.766588l-149.082353 149.082353a45.176471 45.176471 0 0 1-63.849412-63.849412L965.872941 572.235294zM843.294118 240.941176h-90.352942V120.470588a30.117647 30.117647 0 0 0-30.117647-30.117647H120.470588a30.117647 30.117647 0 0 0-30.117647 30.117647v783.058824a30.117647 30.117647 0 0 0 30.117647 30.117647h602.352941a30.117647 30.117647 0 0 0 30.117647-30.117647v-120.470588H843.294118v120.470588a120.470588 120.470588 0 0 1-120.470589 120.470588H120.470588a120.470588 120.470588 0 0 1-120.470588-120.470588V120.470588a120.470588 120.470588 0 0 1 120.470588-120.470588h602.352941a120.470588 120.470588 0 0 1 120.470589 120.470588v120.470588z" p-id="1854" fill="#ffffff"></path></svg>