<?xml version="1.0" standalone="no"?><!DOCTYPE svg PUBLIC "-//W3C//DTD SVG 1.1//EN" "http://www.w3.org/Graphics/SVG/1.1/DTD/svg11.dtd"><svg t="1577436592590" class="icon" viewBox="0 0 1024 1024" version="1.1" xmlns="http://www.w3.org/2000/svg" p-id="4089" xmlns:xlink="http://www.w3.org/1999/xlink" width="28" height="28"><defs><style type="text/css"></style></defs><path d="M64 64.00336l67.2 0 0 896.00224-67.2 0 0-896.00224Z" p-id="4090" fill="#ffffff"></path><path d="M960.0112 892.0664l0 67.2-828.79776 0 0-67.2 828.79776 0Z" p-id="4091" fill="#ffffff"></path><path d="M187.0656 438.82928l134.4 0 0 398.53632-134.4 0 0-398.53632Z" p-id="4092" fill="#ffffff"></path><path d="M388.6656 199.70704l134.4 0 0 637.65744-134.4 0 0-637.65744Z" p-id="4093" fill="#ffffff"></path><path d="M590.2656 359.11664l134.4 0 0 478.24224-134.4 0 0-478.24224Z" p-id="4094" fill="#ffffff"></path><path d="M791.8656 120.00672l134.4 0 0 717.36672-134.4 0 0-717.36672Z" p-id="4095" fill="#ffffff"></path></svg>