<?xml version="1.0" standalone="no"?><!DOCTYPE svg PUBLIC "-//W3C//DTD SVG 1.1//EN" "http://www.w3.org/Graphics/SVG/1.1/DTD/svg11.dtd"><svg t="1577436419096" class="icon" viewBox="0 0 1024 1024" version="1.1" xmlns="http://www.w3.org/2000/svg" p-id="3308" xmlns:xlink="http://www.w3.org/1999/xlink" width="28" height="28"><defs><style type="text/css"></style></defs><path d="M888.913 85.663H135.097c-44.603 0-80.863 36.288-80.863 80.863V641.5c0 44.603 36.261 80.892 80.863 80.892h349.879v161.897h-287.97c-14.933 0-27.024 12.09-27.024 27.023 0 14.943 12.092 27.024 27.024 27.024h629.991c14.941 0 27.021-12.081 27.021-27.024 0-14.934-12.08-27.023-27.021-27.023H539.025V722.392h349.889c44.602 0 80.854-36.289 80.854-80.892V166.527c-0.001-44.576-36.253-80.864-80.855-80.864zM915.719 641.5c0 14.807-12.025 26.843-26.806 26.843H135.097c-14.779 0-26.816-12.036-26.816-26.843V166.527c0-14.78 12.037-26.816 26.816-26.816h753.816c14.78 0 26.806 12.036 26.806 26.816V641.5z" p-id="3309" fill="#ffffff"></path><path d="M757.063 323.806c-5.695-5.515-13.612-8.205-21.318-7.489a27.17 27.17 0 0 0-19.535 11.428L606.848 483.948l-65.451-229.232c-2.844-9.916-11.13-17.36-21.319-19.154-10.241-1.847-20.476 2.373-26.552 10.713L350.863 442.462l-70.512-76.951c-9.508-10.352-25.338-11.719-36.424-3.143l-82.864 63.892c-11.828 9.128-13.984 26.073-4.854 37.892 9.073 11.826 26.072 14.046 37.89 4.908l63.186-48.714 76.055 83.028c5.433 5.959 13.141 9.183 21.426 8.702 8.079-0.444 15.523-4.509 20.323-11.085L504.665 322.91l65.767 230.445a27.187 27.187 0 0 0 21.535 19.208c1.477 0.271 3.006 0.371 4.482 0.371 8.712 0 17.054-4.22 22.116-11.529l123.718-176.741 85.4 82.448c10.659 10.341 27.865 10.08 38.163-0.689 10.396-10.713 10.078-27.812-0.688-38.216L757.063 323.806z" p-id="3310" fill="#ffffff"></path></svg>